<svg xmlns="http://www.w3.org/2000/svg" width="13.323" height="13.213" viewBox="3.248 0 13.323 13.213"><path fill="#F40" d="M19.82 0H7.929V13.213H19.82z"/><path fill="#009920" d="M-.001 0h7.93v13.213h-7.93z"/><path fill="#FFEA00" d="M10.499 8.656l.24-.425c-.461.1-5.139-2.68-5.592-3.338l-.252.422c.032.456 4.607 3.311 5.604 3.341zM5.095 4.836v.001z"/><path fill="#FFEA00" d="M7.832 6.81c1.545.939 2.876 1.521 2.976 1.438a.6.6 0 0 0 .045-.083c-.02.026-.063.037-.134.017-.417-.122-1.505-.62-2.854-1.439-1.348-.816-2.52-1.569-2.703-1.889a.212.212 0 0 1-.019-.095h-.005l-.039.068-.005.011v-.001.001c-.088.239 1.194 1.033 2.738 1.972zM7.569 7.3c1.341.803 2.473 1.354 2.847 1.395.06.008.092.006.108-.024l.042-.071c-.116.144-1.417-.415-2.961-1.372-.157-.097-2.824-1.622-2.699-1.999l-.007-.001-.038.066C4.722 5.517 6.01 6.366 7.569 7.3z"/><path fill="none" stroke="#915E36" stroke-width=".019" stroke-linecap="round" stroke-linejoin="round" d="M7.569 7.3c1.341.803 2.474 1.354 2.847 1.395.06.008.092.007.108-.024l.042-.071c-.116.145-1.417-.413-2.961-1.371-.157-.097-2.824-1.623-2.699-1.998l-.007-.003-.038.066C4.722 5.517 6.01 6.366 7.569 7.3zM7.832 6.81c1.545.939 2.876 1.521 2.976 1.438a.6.6 0 0 0 .045-.083c-.02.026-.063.037-.134.017-.417-.122-1.505-.62-2.854-1.439-1.349-.817-2.521-1.57-2.703-1.891a.207.207 0 0 1-.019-.094h-.005l-.038.067-.006.012v-.001c-.089.241 1.194 1.035 2.738 1.974z"/><path fill="#FFEA00" d="M10.862 5.171l-.153-.248c-.419.232-1.658.385-2.797.407-1.345-.013-2.296-.138-2.77-.456l-.146.264c.875.37 1.772.448 2.926.453.999-.008 2.232-.137 2.94-.42z"/><path fill="#FFEA00" d="M7.926 5.347c.72 0 1.282-.059 1.727-.121.664-.104 1.041-.238 1.117-.301l-.049-.081c-.056.044-.414.214-1.081.306-.44.062-.997.121-1.714.121-.681.002-1.24-.043-1.66-.103-.685-.097-1.03-.237-1.131-.289-.015.022-.026.045-.039.067.129.046.486.205 1.162.293.426.063.982.11 1.668.108z"/><path fill="#FFEA00" d="M7.917 5.624a12.01 12.01 0 0 0 1.817-.132c.682-.116 1.145-.276 1.168-.315l-.049-.085c-.055.067-.436.212-1.134.324a12.07 12.07 0 0 1-1.805.135 12.55 12.55 0 0 1-1.726-.111 5.162 5.162 0 0 1-1.198-.316c-.013.023-.021.042-.036.066.138.057.506.213 1.223.325.441.059 1.025.11 1.74.109z"/><path fill="none" stroke="#915E36" stroke-width=".019" stroke-linecap="round" stroke-linejoin="round" d="M7.926 5.347c.72 0 1.282-.059 1.727-.121.664-.104 1.041-.238 1.117-.301l-.049-.081c-.056.044-.414.214-1.081.306-.44.062-.997.121-1.714.121-.681.002-1.24-.043-1.66-.103-.685-.097-1.03-.237-1.131-.289-.015.022-.026.045-.039.067.129.046.487.205 1.162.293.426.063.982.11 1.668.108z"/><path fill="none" stroke="#915E36" stroke-width=".019" stroke-linecap="round" stroke-linejoin="round" d="M7.917 5.624c.754 0 1.355-.061 1.817-.132.682-.116 1.145-.276 1.168-.315h.001l-.05-.085c-.055.067-.436.212-1.134.324-.459.069-1.056.134-1.805.135a12.55 12.55 0 0 1-1.726-.111 5.175 5.175 0 0 1-1.198-.316c-.013.023-.021.042-.036.066.138.057.507.213 1.223.324.441.06 1.025.111 1.74.11z"/><path fill="#FFEA00" d="M4.642 6.794c.615.33 1.979.497 3.271.508 1.177.004 2.707-.182 3.28-.484l-.017-.33c-.18.279-1.82.549-3.276.537-1.457-.012-2.81-.236-3.261-.528l.003.297z"/><path fill="#FFEA00" d="M7.899 7.052c.836 0 1.508-.061 2.022-.14.678-.109 1.217-.265 1.303-.368v-.078c-.138.121-.828.305-1.314.374-.511.079-1.18.138-2.012.138-.792 0-1.421-.057-1.91-.131-.272-.045-1.086-.19-1.385-.391v.092c.1.061.597.258 1.374.371.492.075 1.126.133 1.922.133z"/><path fill="#FFEA00" d="M7.898 7.332c.836 0 1.508-.062 2.023-.14.678-.109 1.217-.266 1.302-.367v-.079c-.137.122-.827.305-1.313.374-.511.079-1.18.138-2.012.138-.792 0-1.422-.057-1.91-.132-.272-.044-1.086-.189-1.385-.391v.094c.1.061.597.258 1.374.37.491.075 1.125.133 1.921.133z"/><path fill="none" stroke="#915E36" stroke-width=".019" stroke-linecap="round" stroke-linejoin="round" d="M7.898 7.052c.837 0 1.509-.061 2.023-.14.678-.109 1.217-.265 1.303-.368v-.078c-.138.121-.828.305-1.314.374-.511.079-1.18.138-2.012.138-.792 0-1.421-.057-1.91-.131-.272-.045-1.086-.19-1.385-.391v.092c.1.061.597.258 1.374.371.492.075 1.126.133 1.921.133z"/><path fill="none" stroke="#915E36" stroke-width=".019" stroke-linecap="round" stroke-linejoin="round" d="M7.897 7.332c.837 0 1.509-.062 2.024-.14.678-.109 1.217-.266 1.302-.367v-.079c-.137.122-.827.305-1.313.374-.511.079-1.18.138-2.013.138-.791 0-1.421-.057-1.909-.132-.272-.044-1.086-.189-1.385-.391v.094c.1.059.597.257 1.374.37.491.075 1.125.133 1.92.133z"/><path fill="#FFEA00" d="M7.922 8.886c1.073-.031 2.013-.113 2.675-.437l.189-.304c-.45.213-1.983.451-2.878.453-1.413-.008-2.624-.384-2.878-.447l.188.291c.449.192 1.631.475 2.704.444z"/><path fill="#FFEA00" d="M7.925 8.635c.863-.017 1.136-.073 1.568-.133a7.342 7.342 0 0 0 1.276-.283c.021-.036.045-.073.064-.108l-.003-.002-.082.031.007.006c-.117.037-.506.164-1.272.282-.431.06-.768.117-1.559.134-1.057-.018-2.016-.188-2.952-.434l.036.071c.25.077 1.298.396 2.917.436z"/><path fill="#FFEA00" d="M7.916 8.847c-.91-.021-1.874-.146-2.73-.451L5.12 8.37l-.007.01.038.066c.482.209 1.508.453 2.76.473a9.174 9.174 0 0 0 1.661-.152 7.315 7.315 0 0 0 1.01-.259c.029-.042.059-.084.085-.126l-.021.012c-.089.051-.382.158-1.1.304a9.717 9.717 0 0 1-1.63.149z"/><path fill="none" stroke="#915E36" stroke-width=".018" stroke-linecap="round" stroke-linejoin="round" d="M7.916 8.847c-.91-.021-1.874-.146-2.73-.451L5.12 8.37l-.007.01.038.066c.482.209 1.508.453 2.76.473a9.174 9.174 0 0 0 1.661-.152 7.174 7.174 0 0 0 1.01-.259c.029-.042.059-.084.085-.126l-.021.012c-.089.051-.382.158-1.1.304a9.717 9.717 0 0 1-1.63.149z"/><path fill="none" stroke="#915E36" stroke-width=".018" stroke-linecap="round" stroke-linejoin="round" d="M7.925 8.635c.863-.017 1.136-.073 1.568-.133a7.342 7.342 0 0 0 1.276-.283c.021-.036.045-.073.064-.108l-.003-.002-.082.031.007.006c-.117.037-.506.164-1.272.282-.431.06-.768.117-1.558.134-1.058-.018-2.017-.188-2.953-.434l.036.071c.25.077 1.298.396 2.917.436z"/><path fill="#FFEA00" d="M7.904 9.872c1.8 0 3.28-1.466 3.28-3.262 0-1.795-1.48-3.26-3.28-3.26S4.636 4.815 4.636 6.61a3.273 3.273 0 0 0 3.268 3.262zM6.019 4.378a3.09 3.09 0 0 1 1.986-.703c.737.02 1.601.383 2.196 1.102.392.472.561.981.648 1.758.004.929-.473 1.763-.854 2.131a3.076 3.076 0 0 1-2.1.871c-.938.017-1.821-.595-2.057-.863-.465-.524-.842-1.19-.854-2.089.058-1.016.458-1.723 1.035-2.207z"/><path fill="#FFEA00" d="M7.897 9.535a3.085 3.085 0 0 0 2.1-.871c.384-.368.858-1.202.854-2.131-.089-.775-.258-1.286-.648-1.759-.597-.718-1.46-1.082-2.197-1.1-.641-.017-1.409.22-1.986.703s-.977 1.19-1.032 2.206c.012.898.389 1.562.854 2.089.232.268 1.116.881 2.055.863z"/><path fill="none" stroke="#915E36" stroke-width=".019" stroke-linecap="round" stroke-linejoin="round" d="M7.912 9.81c1.754 0 3.199-1.439 3.199-3.199S9.666 3.412 7.912 3.412 4.714 4.851 4.714 6.61s1.444 3.2 3.198 3.2z"/><path fill="none" stroke="#915E36" stroke-width=".019" stroke-linecap="round" stroke-linejoin="round" d="M7.912 9.881a3.276 3.276 0 0 0 3.271-3.271 3.276 3.276 0 0 0-3.271-3.271c-1.802 0-3.271 1.471-3.271 3.271s1.47 3.271 3.271 3.271zm0-6.47a3.212 3.212 0 0 1 3.199 3.199c0 1.759-1.445 3.199-3.199 3.199S4.714 8.369 4.714 6.61a3.211 3.211 0 0 1 3.198-3.199z"/><path fill="none" stroke="#915E36" stroke-width=".019" stroke-linecap="round" stroke-linejoin="round" d="M7.915 9.604a3.008 3.008 0 0 0 2.996-2.996A3.01 3.01 0 0 0 7.915 3.61a3.01 3.01 0 0 0-2.996 2.998 3.01 3.01 0 0 0 2.996 2.996zm0-5.921a2.937 2.937 0 0 1 2.925 2.926c0 1.608-1.321 2.924-2.925 2.924S4.991 8.217 4.991 6.608a2.937 2.937 0 0 1 2.924-2.925z"/><path fill="none" stroke="#915E36" stroke-width=".019" stroke-linecap="round" stroke-linejoin="round" d="M7.915 9.531a2.936 2.936 0 0 0 2.925-2.925c0-1.608-1.321-2.924-2.925-2.924S4.991 4.998 4.991 6.606a2.936 2.936 0 0 0 2.924 2.925z"/><path fill="#FFEA00" d="M7.813 9.903h.208v.035h.071l-.002-6.65h-.07v.036h-.207v-.035H7.74v6.648h.073z"/><path fill="#915E36" d="M7.817 3.335h.2l.008-.009-.008-.011h-.2l-.008.011zM7.817 9.907h.2c.006 0 .01-.004.01-.01s-.004-.01-.01-.01h-.2c-.005 0-.009.004-.009.01.001.006.005.01.009.01z"/><path fill="none" stroke="#915E36" stroke-width=".019" stroke-linecap="round" stroke-linejoin="round" d="M8.021 3.289h.07v6.647h-.07zM7.74 3.289h.072v6.647H7.74z"/><path fill="#FFEA00" d="M7.9 6.144c1.755.004 2.989.328 3.279.602l-.004-.281c-.347-.326-1.937-.602-3.278-.607s-2.856.236-3.266.614v.281c.238-.279 1.514-.613 3.269-.609z"/><path fill="#915E36" d="M4.63 6.735c.006 0 .009-.004.009-.01v-.242c0-.004-.003-.01-.009-.01s-.011.006-.011.01v.242c0 .006.005.01.011.01zM11.195 6.735v-.241c0-.007-.004-.011-.009-.011-.007 0-.01.004-.01.011v.241c0 .006.003.011.01.011.006 0 .009-.005.009-.011z"/><path fill="#FFEA00" d="M5.772 6.089a11.745 11.745 0 0 1 2.143-.191c.771-.002 1.514.072 2.104.188.447.09 1.028.247 1.205.461l.001-.084c-.147-.173-.578-.326-1.192-.449a11.273 11.273 0 0 0-2.118-.189c-.813.002-1.569.076-2.155.19-.642.125-1.113.32-1.155.444v.088c.069-.182.716-.373 1.167-.458z"/><path fill="#FFEA00" d="M5.768 6.369a11.78 11.78 0 0 1 2.146-.192c.771-.001 1.514.073 2.104.188.447.089 1.028.247 1.205.461v-.085c-.146-.172-.578-.326-1.191-.448a11.299 11.299 0 0 0-2.117-.188c-.813.002-1.57.076-2.156.19-.649.13-1.112.317-1.155.442v.09c.076-.181.697-.365 1.164-.458z"/><path fill="none" stroke="#915E36" stroke-width=".019" stroke-linecap="round" stroke-linejoin="round" d="M5.772 6.089a11.745 11.745 0 0 1 2.143-.191c.771-.002 1.514.072 2.104.188.447.09 1.028.247 1.205.461l.001-.084c-.147-.173-.578-.326-1.192-.449a11.273 11.273 0 0 0-2.118-.189c-.813.002-1.569.076-2.155.19-.642.125-1.113.32-1.155.444v.088c.069-.182.716-.373 1.167-.458z"/><path fill="none" stroke="#915E36" stroke-width=".019" stroke-linecap="round" stroke-linejoin="round" d="M5.768 6.369a11.78 11.78 0 0 1 2.146-.192c.771-.001 1.514.073 2.104.188.447.089 1.028.245 1.205.461v-.085c-.146-.174-.578-.326-1.191-.448a11.299 11.299 0 0 0-2.117-.188c-.813.002-1.57.076-2.155.19-.65.13-1.113.317-1.156.442v.09c.076-.181.697-.365 1.164-.458z"/><path fill="#FFEA00" d="M10.84 5.118l-.178-.307c-.484-.25-1.548-.427-2.765-.42h.001c-1.048.002-2.208.131-2.7.387l-.211.354c.6-.32 1.795-.438 2.913-.443 1.374-.036 2.517.203 2.94.429z"/><path fill="#915E36" d="M10.816 5.063l.004-.001.003-.012-.122-.196-.012-.001-.002.013.12.194z"/><path fill="#FFEA00" d="M7.913 4.437c.665.006 1.294.041 1.802.129.435.076.926.215 1.057.359l-.077-.122c-.146-.108-.544-.231-.948-.311-.511-.093-1.167-.13-1.832-.128-.7.003-1.349.045-1.854.136-.365.071-.655.158-.836.253l-.067.101c.129-.084.438-.19.914-.281.5-.092 1.145-.135 1.841-.136z"/><path fill="#FFEA00" d="M7.913 4.72c.69-.002 1.36.031 1.891.131.524.101.937.221 1.102.327l-.054-.093c-.067-.075-.541-.214-1.038-.307-.534-.095-1.204-.134-1.898-.132-.774.003-1.39.033-1.931.132-.49.088-.782.2-.964.295l-.052.098c.094-.07.478-.218 1.028-.32.525-.092 1.133-.133 1.916-.131z"/><path fill="none" stroke="#915E36" stroke-width=".019" stroke-linecap="round" stroke-linejoin="round" d="M7.913 4.72c.69-.002 1.36.031 1.891.131.524.101.937.219 1.102.327l-.054-.093c-.067-.075-.541-.214-1.038-.307-.534-.095-1.204-.134-1.898-.132-.774.003-1.39.033-1.931.132-.49.088-.782.2-.964.295l-.052.098c.094-.07.478-.218 1.028-.32.525-.092 1.133-.133 1.916-.131z"/><path fill="none" stroke="#915E36" stroke-width=".019" stroke-linecap="round" stroke-linejoin="round" d="M7.913 4.437c.665.006 1.294.041 1.802.129.435.076.926.215 1.057.359l-.077-.122c-.146-.108-.544-.231-.948-.311-.511-.093-1.167-.13-1.832-.128-.7.003-1.349.045-1.854.136-.365.071-.655.158-.836.253l-.067.101c.129-.084.438-.19.915-.281.499-.092 1.144-.135 1.84-.136z"/><path fill="#FFEA00" d="M7.913 7.847a8.456 8.456 0 0 1 1.625.123v.002l.142-.248c-.492-.096-1.077-.141-1.755-.152-1.307-.021-2.41.188-2.928.562l.153.248c.08-.119.736-.513 2.763-.535z"/><path fill="#915E36" d="M5.122 8.345c.002.004.007.006.01.006.002 0 .003 0 .005-.002.005-.002.006-.009.003-.015l-.1-.17a.01.01 0 0 0-.013-.004c-.004.003-.007.008-.003.013l.098.172z"/><path fill="#FFEA00" d="M5.657 7.867c.726-.211 1.523-.264 2.274-.266.693.012 1.201.047 1.729.15l.041-.07c-.587-.116-1.189-.144-1.774-.155-.758.002-1.557.057-2.285.269-.315.093-.664.229-.673.335l.038.069c.015-.117.419-.262.65-.332z"/><path fill="#FFEA00" d="M5.722 8.067c-.39.109-.599.246-.608.312l.038.063c.035-.11.38-.244.588-.303.659-.188 1.416-.259 2.165-.252a8.42 8.42 0 0 1 1.612.123l.038-.068c-.534-.1-1.088-.123-1.652-.13-.721.003-1.426.041-2.181.255z"/><path fill="none" stroke="#915E36" stroke-width=".018" stroke-linecap="round" stroke-linejoin="round" d="M5.657 7.867c.726-.211 1.523-.264 2.274-.266.693.012 1.201.047 1.729.15l.041-.07c-.587-.116-1.189-.144-1.774-.155-.758.002-1.557.057-2.285.269-.315.093-.664.229-.673.335l.038.069c.015-.117.419-.262.65-.332z"/><path fill="none" stroke="#915E36" stroke-width=".018" stroke-linecap="round" stroke-linejoin="round" d="M5.722 8.067c-.39.109-.599.246-.608.312l.038.063c.035-.11.38-.244.588-.303.659-.188 1.416-.259 2.165-.252a8.42 8.42 0 0 1 1.612.123l.038-.068c-.534-.1-1.088-.123-1.652-.13-.72.003-1.426.041-2.181.255z"/><path fill="#FFEA00" d="M10.542 8.575l.288-.44c-.015-.524-4.654-3.374-5.659-3.36l-.244.472c.776-.055 5.485 2.719 5.615 3.328z"/><path fill="#915E36" d="M10.573 8.556l.244-.379-.002-.013-.014.003-.243.378.003.015h.005zM4.937 5.229l.008-.005.227-.42-.005-.014-.012.005-.227.42.005.013z"/><path fill="#FFEA00" d="M5.108 4.824c.038-.033.102-.031.132-.031.364.005 1.409.485 2.873 1.325.643.373 2.711 1.701 2.704 2.074 0 .031.001.039-.011.054l.053-.079c.119-.232-1.153-1.191-2.729-2.123-1.612-.914-2.775-1.452-2.987-1.292l-.047.087c-.001.004.001-.007.012-.015zM7.863 6.646c1.608.973 2.578 1.746 2.639 1.945.027.069.008.094.003.098l.02-.016.04-.064c.123-.184-1.243-1.162-2.673-2.029C6.456 5.716 5.085 5.103 4.9 5.23l-.042.078c.13-.161 1.436.403 3.005 1.338z"/><path fill="none" stroke="#915E36" stroke-width=".019" stroke-linecap="round" stroke-linejoin="round" d="M7.863 6.646c1.608.972 2.578 1.744 2.639 1.945.027.068.008.094.003.098l.02-.017.04-.063c.123-.184-1.243-1.162-2.673-2.03-1.437-.865-2.808-1.476-2.993-1.35l-.041.079c.13-.162 1.436.402 3.005 1.338zM5.108 4.824c.038-.033.102-.031.132-.031.364.005 1.409.485 2.873 1.325.643.373 2.711 1.701 2.704 2.072 0 .033.001.039-.01.056l.052-.079v-.001.001c.119-.232-1.153-1.191-2.729-2.124-1.612-.913-2.775-1.451-2.987-1.291l-.047.086c-.001.004.001-.006.012-.014z"/><path fill="#FFF" stroke="#915E36" stroke-width=".02" d="M7.911 8.931a1.966 1.966 0 0 0 1.963-1.959V4.356l-3.921-.003V6.97c0 .538.221 1.023.577 1.381.358.354.842.58 1.381.58z"/><path fill="#F00" stroke="#A60000" stroke-width=".02" d="M6.027 6.976c0 .515.212.981.555 1.321A1.88 1.88 0 0 0 9.79 6.978h-.001v-2.54h-3.76l-.002 2.538zm3.005-1.778v1.785a1.091 1.091 0 0 1-.33.791 1.112 1.112 0 0 1-1.582-.005 1.12 1.12 0 0 1-.33-.791l-.002-1.784 2.244.004z"/><path fill="#FFEA00" stroke="#A60000" stroke-width=".017" d="M9.684 5.088l-.026-.203h-.497l-.021.203zM9.69 5.142c.014 0 .021-.013.021-.025 0-.016-.009-.026-.021-.026h-.56c-.012 0-.021.013-.021.026s.01.025.021.025h.56z"/><path fill="#FFEA00" stroke="#A60000" stroke-width=".017" d="M9.69 5.142c.014 0 .021-.013.021-.025 0-.016-.009-.026-.021-.026h-.56c-.012 0-.021.013-.021.026s.01.025.021.025h.56zM9.68 4.838c.01 0 .021-.011.021-.022a.022.022 0 0 0-.021-.022h-.537a.021.021 0 0 0-.021.022c0 .012.01.022.021.022h.537zM9.666 4.885c.012 0 .021-.01.021-.022 0-.014-.01-.022-.021-.022h-.513c-.011 0-.02.011-.02.022 0 .014.009.022.02.022h.513zM9.319 4.487v.065c0 .011.01.019.021.019h.146c.01 0 .018-.008.018-.019v-.065h-.043v.029h-.028v-.029h-.042v.029h-.029v-.029h-.043z"/><path fill="#FFEA00" stroke="#A60000" stroke-width=".017" d="M9.472 4.571h-.123l-.009.221.141-.001-.009-.214zM9.522 4.677l-.005.114h.137l-.004-.114zM9.495 4.593v.064c0 .011.009.019.02.019h.143c.01 0 .019-.007.019-.018v-.066h-.04v.029h-.03v-.029h-.04v.029h-.031v-.028h-.041zM9.146 4.593v.065c0 .01.009.019.018.019h.145c.01 0 .018-.008.018-.019l.001-.066h-.043v.03h-.028v-.03h-.04v.03h-.029v-.029h-.042zM9.166 4.791h.138l-.005-.114h-.128z"/><path fill="#A60000" d="M9.397 4.646v.051h.028v-.051c0-.023-.029-.023-.028 0zM9.572 4.718v.04h.027v-.04c.001-.021-.027-.02-.027 0zM9.221 4.718v.04h.026v-.04c0-.021-.026-.02-.026 0z"/><path fill="#FFEA00" stroke="#A60000" stroke-width=".017" d="M9.408 4.888c-.003 0-.134.027-.135.201h.271c-.004-.163-.133-.201-.136-.201z"/><path fill="#FFEA00" stroke="#A60000" stroke-width=".017" d="M9.408 4.948s-.075.029-.075.14h.153c0-.109-.078-.14-.078-.14zM8.192 5.088l-.026-.203h-.497l-.02.203zM8.198 5.142c.012 0 .021-.013.021-.025 0-.016-.011-.026-.021-.026h-.561c-.013 0-.021.013-.021.026s.009.025.021.025h.561z"/><path fill="#FFEA00" stroke="#A60000" stroke-width=".017" d="M8.198 5.142c.012 0 .021-.013.021-.025 0-.016-.011-.026-.021-.026h-.561c-.013 0-.021.013-.021.026s.009.025.021.025h.561zM8.188 4.838c.011 0 .021-.011.021-.022a.021.021 0 0 0-.021-.022h-.537a.021.021 0 0 0-.021.022c0 .012.009.022.021.022h.537zM8.175 4.885c.011 0 .02-.01.02-.022 0-.014-.009-.022-.02-.022H7.66c-.011 0-.02.011-.02.022 0 .014.009.022.02.022h.515zM7.826 4.487v.065c0 .011.01.019.021.019h.145c.011 0 .02-.008.02-.019v-.065H7.97v.029h-.03v-.029H7.9v.029h-.03v-.029h-.044z"/><path fill="#FFEA00" stroke="#A60000" stroke-width=".017" d="M7.98 4.571h-.122l-.011.221.141-.001-.008-.214zM8.029 4.677l-.004.114h.135l-.004-.114zM8.004 4.593v.064c0 .011.009.019.019.019h.143c.011 0 .019-.007.019-.018v-.066h-.042v.029h-.029v-.029h-.04v.029h-.032v-.028h-.038zM7.652 4.593v.065c.001.01.01.019.021.019h.143c.01 0 .018-.008.018-.019v-.066h-.043v.03h-.028v-.03h-.041v.03h-.029v-.029h-.041zM7.675 4.791h.136l-.004-.114h-.128z"/><path fill="#A60000" d="M7.904 4.646v.051h.029v-.051c.001-.023-.03-.023-.029 0zM8.079 4.718v.04h.027v-.04c.002-.021-.027-.02-.027 0zM7.729 4.718v.04h.026v-.04c.001-.021-.026-.02-.026 0z"/><path fill="#FFEA00" stroke="#A60000" stroke-width=".017" d="M7.916 4.888c-.003 0-.134.027-.135.201h.271c-.003-.163-.133-.201-.136-.201z"/><path fill="#FFEA00" stroke="#A60000" stroke-width=".017" d="M7.916 4.948s-.073.029-.074.14h.151c0-.109-.077-.14-.077-.14zM6.681 5.088l-.025-.203h-.498l-.021.203zM6.688 5.142c.012 0 .021-.013.021-.025 0-.016-.01-.026-.021-.026h-.561c-.013 0-.021.013-.021.026s.01.025.021.025h.561z"/><path fill="#FFEA00" stroke="#A60000" stroke-width=".017" d="M6.688 5.142c.012 0 .021-.013.021-.025 0-.016-.01-.026-.021-.026h-.561c-.013 0-.021.013-.021.026s.01.025.021.025h.561zM6.676 4.838c.012 0 .021-.011.021-.022 0-.013-.009-.022-.021-.022H6.14c-.013 0-.021.01-.021.022 0 .012.009.022.021.022h.536zM6.662 4.885c.013 0 .021-.01.021-.022 0-.014-.009-.022-.021-.022H6.15c-.011 0-.02.011-.02.022 0 .014.009.022.02.022h.512zM6.317 4.487v.065c0 .011.01.019.019.019h.146a.018.018 0 0 0 .019-.019v-.065h-.042v.029H6.43v-.029h-.042v.029h-.029v-.029h-.042z"/><path fill="#FFEA00" stroke="#A60000" stroke-width=".017" d="M6.469 4.571h-.124l-.01.221.144-.001-.01-.214zM6.518 4.677l-.004.114h.136l-.004-.114zM6.491 4.593v.064c0 .011.01.019.02.019h.144c.009 0 .019-.007.019-.018v-.066h-.042v.029h-.029v-.029h-.04v.029h-.03v-.028h-.042zM6.142 4.593v.065c0 .01.009.019.02.019h.144a.019.019 0 0 0 .018-.019v-.066h-.043v.03h-.029v-.03h-.039v.03h-.029v-.029h-.042zM6.163 4.791H6.3l-.006-.114h-.128z"/><path fill="#A60000" d="M6.394 4.646v.051h.028v-.051c0-.023-.029-.023-.028 0zM6.569 4.718v.04h.026v-.04c.002-.021-.026-.02-.026 0zM6.217 4.718v.04h.026v-.04c.001-.021-.026-.02-.026 0z"/><path fill="#FFEA00" stroke="#A60000" stroke-width=".017" d="M6.405 4.888c-.003 0-.133.027-.134.201h.27c-.004-.163-.134-.201-.136-.201z"/><path fill="#FFEA00" stroke="#A60000" stroke-width=".017" d="M6.405 4.948s-.074.029-.074.14h.152c0-.109-.078-.14-.078-.14z"/><g><path fill="#FFEA00" stroke="#A60000" stroke-width=".017" d="M6.68 6.619l-.024-.204h-.498l-.022.203zM6.688 6.672c.012 0 .021-.013.021-.026 0-.015-.01-.025-.021-.025h-.562c-.012 0-.021.012-.021.025 0 .015.01.026.021.026h.562z"/><path fill="#FFEA00" stroke="#A60000" stroke-width=".017" d="M6.688 6.672c.012 0 .021-.012.021-.026 0-.014-.01-.025-.021-.025h-.562c-.012 0-.021.012-.021.025 0 .015.01.026.021.026h.562zM6.675 6.369c.013 0 .021-.011.021-.024a.02.02 0 0 0-.021-.021h-.536a.022.022 0 0 0-.021.021c0 .014.01.024.021.024h.536zM6.662 6.415a.02.02 0 0 0 .021-.021c0-.015-.009-.023-.021-.023h-.513c-.01 0-.019.01-.019.023s.009.021.019.021h.513zM6.317 6.019v.066c0 .009.009.018.019.018h.146c.01 0 .018-.006.018-.018v-.066h-.042v.029H6.43v-.029h-.042v.029h-.029v-.029h-.042zM6.469 6.103h-.124l-.01.219.143-.001-.009-.215zM6.518 6.207l-.004.114h.136l-.004-.114zM6.491 6.123v.065c0 .01.009.018.02.018h.144c.009 0 .019-.006.019-.018v-.065h-.043v.028h-.028v-.028l-.04-.001v.029h-.03v-.028h-.042zM6.142 6.124v.064c0 .011.009.019.02.019h.144a.018.018 0 0 0 .018-.019v-.065h-.043v.028h-.029v-.028h-.041v.028h-.027v-.027h-.042z"/><path fill="#FFEA00" stroke="#A60000" stroke-width=".017" d="M6.162 6.321h.137l-.005-.114h-.128z"/><path fill="#A60000" d="M6.394 6.175v.051h.027v-.051c.001-.022-.029-.022-.027 0zM6.568 6.249v.039h.027v-.039c.001-.02-.027-.02-.027 0zM6.217 6.249v.039h.026v-.039c0-.02-.026-.02-.026 0z"/><path fill="#FFEA00" stroke="#A60000" stroke-width=".017" d="M6.405 6.418c-.003-.001-.133.028-.134.201h.27c-.005-.163-.134-.201-.136-.201z"/><path fill="#FFEA00" stroke="#A60000" stroke-width=".017" d="M6.405 6.479c-.001 0-.074.029-.075.14h.153c0-.109-.078-.14-.078-.14z"/></g><g><path fill="#FFEA00" stroke="#A60000" stroke-width=".017" d="M7.147 7.926l-.161-.127-.352.35.129.161zM7.188 7.958c.01-.009.009-.023-.002-.034-.01-.01-.025-.012-.033-.003l-.396.396c-.009.009-.007.023.004.034.01.01.023.012.032.004l.395-.397z"/><path fill="#FFEA00" stroke="#A60000" stroke-width=".017" d="M7.188 7.958c.01-.009.009-.023-.002-.034-.01-.01-.025-.012-.033-.003l-.396.396c-.009.009-.007.023.004.034.01.01.023.012.032.004l.395-.397zM6.967 7.751c.008-.008.008-.022-.002-.031-.011-.009-.023-.009-.031-.001l-.38.38c-.008.007-.007.021.003.03.009.009.021.011.031.001l.379-.379zM6.99 7.793c.007-.008.007-.021-.003-.03-.009-.01-.021-.01-.029-.003l-.362.363c-.008.007-.007.021.002.03.01.01.021.011.029.003l.363-.363zM6.465 7.759l.047.047c.006.006.02.006.024-.002l.104-.103c.007-.009.008-.019.001-.025l-.047-.047-.029.028.021.021-.021.021-.021-.021-.028.03.02.021-.021.021-.021-.021-.029.03z"/><path fill="#FFEA00" stroke="#A60000" stroke-width=".017" d="M6.633 7.71l-.089.087.149.162.1-.101-.157-.145zM6.74 7.748l.078.086.096-.099-.084-.078z"/><path fill="#FFEA00" stroke="#A60000" stroke-width=".017" d="M6.662 7.707l.047.046c.008.008.021.007.026 0l.101-.102c.007-.006.008-.018 0-.023l-.048-.047-.026.027.02.022-.02.021-.022-.021-.027.028.021.021-.021.021-.021-.021-.03.028zM6.415 7.955l.048.046c.006.008.018.007.024 0l.102-.102c.007-.005.007-.017.001-.023l-.049-.048-.028.028.021.021-.021.02-.022-.02-.028.028.021.021-.021.02-.02-.02-.028.029z"/><path fill="#FFEA00" stroke="#A60000" stroke-width=".017" d="M6.572 8.081l.095-.098-.085-.077-.091.09z"/><path fill="#A60000" d="M6.63 7.813l.035.037.021-.021-.035-.035c-.015-.016-.036.007-.021.019zM6.807 7.743l.026.027.021-.02-.029-.026c-.013-.015-.034.005-.018.019zM6.558 7.991l.027.027.021-.021-.029-.025c-.014-.015-.034.006-.019.019z"/><path fill="#FFEA00" stroke="#A60000" stroke-width=".017" d="M6.811 7.978c-.003.001-.074.113.048.237l.19-.19c-.118-.114-.236-.049-.238-.047z"/><path fill="#FFEA00" stroke="#A60000" stroke-width=".017" d="M6.854 8.021s-.031.073.046.151l.108-.106c-.077-.079-.154-.045-.154-.045z"/></g><g><path fill="#FFEA00" stroke="#A60000" stroke-width=".017" d="M8.68 7.931l.161-.128.351.35-.127.16z"/><path fill="#FFEA00" stroke="#A60000" stroke-width=".017" d="M8.638 7.962c-.008-.009-.007-.024.004-.033a.023.023 0 0 1 .033-.004l.396.396c.008.009.007.024-.004.033-.01.011-.024.012-.033.004l-.396-.396z"/><path fill="#FFEA00" stroke="#A60000" stroke-width=".017" d="M8.638 7.962c-.008-.009-.007-.024.004-.033a.023.023 0 0 1 .033-.004l.396.396c.008.009.007.024-.004.033-.01.011-.024.012-.033.004l-.396-.396zM8.86 7.755c-.009-.008-.007-.022.002-.029.009-.011.022-.012.03-.002l.38.379c.007.007.007.02-.002.03-.009.011-.024.011-.031.002l-.379-.38zM8.834 7.797c-.007-.008-.006-.021.004-.03.009-.009.022-.011.029-.002l.363.363c.008.007.008.021-.002.029-.01.01-.022.01-.03.003l-.364-.363zM9.361 7.763l-.047.047c-.007.006-.02.006-.025-.002l-.103-.103c-.008-.008-.008-.018-.001-.024l.047-.048.029.029-.021.021.021.021.021-.021.029.028-.022.02.021.021.02-.021.031.032z"/><path fill="#FFEA00" stroke="#A60000" stroke-width=".017" d="M9.194 7.713l.087.088-.147.162-.102-.101.159-.144zM9.085 7.752l-.077.084-.097-.096.083-.078zM9.162 7.711l-.047.047c-.006.007-.018.007-.023-.001l-.102-.101c-.007-.007-.007-.018 0-.024l.047-.048.028.028-.022.022.021.02.021-.021.029.028-.02.022.021.021.021-.021.026.028zM9.409 7.959l-.045.047c-.007.007-.019.007-.025-.001l-.101-.102c-.008-.006-.008-.015-.001-.023l.047-.047.029.027-.022.022.021.021.021-.021.029.028-.021.021.021.021.021-.021.026.028zM9.255 8.084l-.098-.097.086-.077.089.09z"/><path fill="#A60000" d="M9.196 7.817l-.037.037-.019-.021.035-.036c.016-.014.036.009.021.02zM9.021 7.746l-.029.028-.02-.02L9 7.728c.015-.016.033.003.021.018zM9.269 7.995l-.028.027-.02-.02.027-.027c.016-.014.034.004.021.02z"/><path fill="#FFEA00" stroke="#A60000" stroke-width=".017" d="M9.016 7.979c-.002-.002-.12-.064-.238.049l.191.189c.121-.122.051-.234.047-.238z"/><path fill="#FFEA00" stroke="#A60000" stroke-width=".017" d="M8.973 8.024s.032.072-.045.15l-.109-.107c.077-.076.154-.045.154-.043z"/></g><g><path fill="#FFEA00" stroke="#A60000" stroke-width=".017" d="M9.683 6.619l-.026-.204H9.16l-.021.203zM9.69 6.672c.012 0 .021-.013.021-.026-.001-.015-.011-.026-.021-.026h-.561c-.013 0-.021.012-.021.025 0 .015.009.026.021.026h.561z"/><path fill="#FFEA00" stroke="#A60000" stroke-width=".017" d="M9.69 6.672c.012 0 .021-.012.021-.026-.001-.014-.011-.026-.021-.026h-.561c-.013 0-.021.012-.021.025 0 .015.009.026.021.026h.561zM9.679 6.369c.011 0 .021-.011.021-.024a.021.021 0 0 0-.021-.021h-.537a.022.022 0 0 0-.021.021c0 .014.01.024.021.024h.537zM9.665 6.415c.012 0 .021-.01.021-.021 0-.015-.009-.023-.021-.023h-.513c-.011 0-.019.01-.019.023s.008.021.019.021h.513zM9.318 6.019v.066c0 .009.01.018.021.018h.146c.009 0 .018-.006.018-.018v-.066H9.46v.029h-.029v-.029H9.39v.029h-.029v-.029h-.043zM9.471 6.103h-.123l-.01.219.143-.001-.01-.215zM9.52 6.207l-.003.114h.135l-.003-.114zM9.494 6.123v.065c0 .01.01.018.02.018h.143c.01 0 .02-.006.02-.018v-.065h-.042v.028h-.029v-.028l-.041-.001v.029h-.03v-.028h-.041zM9.145 6.124v.064c0 .011.009.019.019.019h.145c.008 0 .017-.007.017-.019v-.065h-.04v.028h-.03v-.028h-.043v.028h-.029v-.027h-.039zM9.165 6.321h.138l-.005-.114h-.129z"/><path fill="#A60000" d="M9.396 6.175v.051h.028v-.051c.001-.022-.028-.022-.028 0zM9.572 6.249v.039h.026v-.039c.002-.02-.027-.02-.026 0zM9.219 6.249v.039h.027v-.039c0-.02-.027-.02-.027 0z"/><path fill="#FFEA00" stroke="#A60000" stroke-width=".017" d="M9.407 6.418c-.002-.001-.132.028-.133.201h.269c-.004-.163-.133-.201-.136-.201z"/><path fill="#FFEA00" stroke="#A60000" stroke-width=".017" d="M9.407 6.479s-.075.029-.075.14h.153c.001-.109-.078-.14-.078-.14z"/></g><path fill="#04C" d="M7.921 6.953c.067 0 .13-.03.175-.079a.267.267 0 0 0 .072-.187v-.356h-.494l-.001.356c0 .073.026.14.072.188a.244.244 0 0 0 .176.078zM7.918 7.806a.24.24 0 0 0 .176-.08.27.27 0 0 0 .072-.188v-.355h-.494l-.001.355c0 .072.027.14.072.188.044.048.108.08.175.08zM6.986 6.688c0 .072.027.14.072.188.046.048.106.078.176.078s.131-.03.174-.078a.268.268 0 0 0 .074-.188v-.354l-.495-.001-.001.355zM8.358 6.688c0 .071.027.14.073.188.045.049.105.078.175.078s.131-.029.175-.077a.275.275 0 0 0 .073-.188v-.355l-.496-.001v.355zM7.921 6.094c.066 0 .13-.03.175-.077a.278.278 0 0 0 .072-.188v-.357h-.494l-.001.354c0 .073.026.14.072.188.045.049.109.08.176.08z"/><circle fill="#FFF" cx="8.059" cy="7.587" r=".049"/><circle fill="#FFF" cx="7.786" cy="7.587" r=".049"/><circle fill="#FFF" cx="7.921" cy="7.45" r=".049"/><circle fill="#FFF" cx="8.745" cy="6.737" r=".049"/><circle fill="#FFF" cx="8.479" cy="6.737" r=".049"/><circle fill="#FFF" cx="8.608" cy="6.599" r=".049"/><circle fill="#FFF" cx="8.745" cy="6.467" r=".049"/><circle fill="#FFF" cx="8.479" cy="6.467" r=".049"/><circle fill="#FFF" cx="8.062" cy="6.735" r=".049"/><circle fill="#FFF" cx="7.786" cy="6.736" r=".049"/><circle fill="#FFF" cx="7.924" cy="6.597" r=".049"/><circle fill="#FFF" cx="8.062" cy="6.466" r=".049"/><circle fill="#FFF" cx="7.786" cy="6.465" r=".049"/><circle fill="#FFF" cx="7.372" cy="6.737" r=".049"/><circle fill="#FFF" cx="7.106" cy="6.737" r=".049"/><circle fill="#FFF" cx="7.236" cy="6.599" r=".049"/><circle fill="#FFF" cx="7.373" cy="6.467" r=".049"/><circle fill="#FFF" cx="7.786" cy="7.317" r=".049"/><circle fill="#FFF" cx="7.786" cy="5.606" r=".049"/><circle fill="#FFF" cx="8.056" cy="5.606" r=".049"/><circle fill="#FFF" cx="7.916" cy="5.738" r=".049"/><circle fill="#FFF" cx="8.056" cy="5.876" r=".049"/><circle fill="#FFF" cx="7.786" cy="5.876" r=".049"/><circle fill="#FFF" cx="7.106" cy="6.467" r=".049"/></svg>