<?xml version="1.0" encoding="utf-8"?>
<!-- Generator: Adobe Illustrator 16.0.0, SVG Export Plug-In . SVG Version: 6.00 Build 0)  -->
<!DOCTYPE svg PUBLIC "-//W3C//DTD SVG 1.1//EN" "http://www.w3.org/Graphics/SVG/1.1/DTD/svg11.dtd">
<svg version="1.1" id="Layer_1" xmlns="http://www.w3.org/2000/svg" xmlns:xlink="http://www.w3.org/1999/xlink" x="0px" y="0px"
	 width="151px" height="77.647px" viewBox="0 0 151 77.647" enable-background="new 0 0 151 77.647" xml:space="preserve">
<g>
	<g>
		<path id="base_1_9" fill="#2196F3" d="M9.824,72.352c-1.95,0-3.53-1.581-3.53-3.529v-60c0-1.949,1.581-3.53,3.53-3.53h59.999
			c1.949,0,3.53,1.581,3.53,3.53v60c0,1.948-1.581,3.529-3.53,3.529H9.824z"/>
		
			<linearGradient id="SVGID_1_" gradientUnits="userSpaceOnUse" x1="-156.9707" y1="253.9297" x2="-44.2557" y2="365.6833" gradientTransform="matrix(1 0 0 1 178 -233.6777)">
			<stop  offset="0" style="stop-color:#000000;stop-opacity:0.1"/>
			<stop  offset="1" style="stop-color:#000000;stop-opacity:0"/>
		</linearGradient>
		<path fill="url(#SVGID_1_)" d="M20.901,57.264V20.381h8.309l15.451,15.452l5.802-15.452h8.283l14.607,14.607v33.835
			c0,1.948-1.581,3.529-3.529,3.529H35.989L20.901,57.264z"/>
		<path fill="none" d="M58.746,20.381v36.883h-6.384V45.105l0.633-16.264L42.102,57.264h-4.584L26.652,28.868l0.634,16.237v12.158
			h-6.385V20.381h8.309l10.638,28.271l10.616-28.271H58.746z"/>
		<path fill="#FFFFFF" d="M58.746,20.381v36.883h-6.384V45.105l0.633-16.264L42.102,57.264h-4.584L26.652,28.868l0.632,16.237
			v12.158h-6.383V20.381h8.309l10.638,28.271l10.616-28.271H58.746z"/>
		<path id="base_1_5_1" fill="none" d="M1,38.823C1,17.381,18.382-0.001,39.823-0.001c21.442,0,38.824,17.382,38.824,38.824
			c0,21.442-17.382,38.824-38.824,38.824C18.382,77.647,1,60.265,1,38.823z"/>
		<path id="base_1_1_1" fill="none" d="M1,38.823C1,17.381,18.382-0.001,39.823-0.001c21.442,0,38.824,17.382,38.824,38.824
			c0,21.442-17.382,38.824-38.824,38.824C18.382,77.647,1,60.265,1,38.823z"/>
		<g id="Layer_x5F_1_1_1">
		</g>
		<rect x="1" y="-0.001" fill="none" width="77.647" height="38.824"/>
		<path fill="none" d="M1,38.823V-0.001h77.647v38.824H1z"/>
		<path fill="none" d="M1,38.823V-0.001h77.647v38.824H1z"/>
		<path fill="none" d="M1,38.823V-0.001h77.647v38.824H1z"/>
		<path fill="none" d="M1,38.823V-0.001h77.647v38.824H1z"/>
		<g id="Layer_x5F_1_2_1">
			<g>
				<g id="XMLID_x5F_1_x5F__1_1">
				</g>
			</g>
		</g>
		<rect x="1" y="-0.001" fill="none" width="77.647" height="38.824"/>
		<path fill="none" d="M1,38.823V-0.001h77.647v38.824H1z"/>
		<path fill="none" d="M1,38.823V-0.001h77.647v38.824H1z"/>
		<path fill="none" d="M1,38.823V-0.001h77.647v38.824H1z"/>
		<path fill="none" d="M1,38.823V-0.001h77.647v38.824H1z"/>
	</g>
	<g>
		<path id="base_1_13" fill="#673AB7" d="M82.177,72.352c-1.95,0-3.53-1.581-3.53-3.529v-60c0-1.949,1.581-3.53,3.53-3.53h59.999
			c1.95,0,3.53,1.581,3.53,3.53v60c0,1.948-1.581,3.529-3.53,3.529H82.177z"/>
		
			<linearGradient id="SVGID_2_" gradientUnits="userSpaceOnUse" x1="-82.0933" y1="254.7373" x2="22.8229" y2="367.4511" gradientTransform="matrix(1 0 0 1 178 -233.6777)">
			<stop  offset="0" style="stop-color:#000000;stop-opacity:0.1"/>
			<stop  offset="1" style="stop-color:#000000;stop-opacity:0"/>
		</linearGradient>
		<path fill="url(#SVGID_2_)" d="M97.152,57.744V19.9h6.576l8.017,8.016l6.697-8.016h7.951l19.312,19.313v29.61
			c0,1.948-1.581,3.529-3.53,3.529H111.76L97.152,57.744z"/>
		<path fill="none" d="M108.019,41.395l-4.291,4.548v11.801h-6.576V19.9h6.576v17.754l3.64-4.498L118.441,19.9h7.953l-14.062,16.766
			l14.87,21.08h-7.797L108.019,41.395z"/>
		<path fill="#FFFFFF" d="M108.019,41.395l-4.291,4.548v11.801h-6.576V19.9h6.576v17.753l3.64-4.497L118.441,19.9h7.953
			l-14.062,16.766l14.87,21.08h-7.797L108.019,41.395z"/>
		<path id="base_1_9_1" fill="none" d="M73.353,38.823c0-21.442,17.382-38.824,38.824-38.824C133.618-0.001,151,17.381,151,38.823
			c0,21.442-17.382,38.824-38.823,38.824C90.735,77.647,73.353,60.265,73.353,38.823z"/>
		<path id="base_1_5_1_1_" fill="none" d="M73.353,38.823c0-21.442,17.382-38.824,38.824-38.824
			C133.618-0.001,151,17.381,151,38.823c0,21.442-17.382,38.824-38.823,38.824C90.735,77.647,73.353,60.265,73.353,38.823z"/>
		<path id="base_1_1_1_1_" fill="none" d="M73.353,38.823c0-21.442,17.382-38.824,38.824-38.824
			C133.618-0.001,151,17.381,151,38.823c0,21.442-17.382,38.824-38.823,38.824C90.735,77.647,73.353,60.265,73.353,38.823z"/>
		<g id="Layer_x5F_1_1_1_1_">
		</g>
		<rect x="73.353" y="-0.001" fill="none" width="77.647" height="38.824"/>
		<path fill="none" d="M73.353,38.823V-0.001H151v38.824H73.353z"/>
		<path fill="none" d="M73.353,38.823V-0.001H151v38.824H73.353z"/>
		<path fill="none" d="M73.353,38.823V-0.001H151v38.824H73.353z"/>
		<path fill="none" d="M73.353,38.823V-0.001H151v38.824H73.353z"/>
		<g id="Layer_x5F_1_2_1_1_">
			<g>
				<g id="XMLID_x5F_1_x5F__1_1_1_">
				</g>
			</g>
		</g>
		<rect x="73.353" y="-0.001" fill="none" width="77.647" height="38.824"/>
		<path fill="none" d="M73.353,38.823V-0.001H151v38.824H73.353z"/>
		<path fill="none" d="M73.353,38.823V-0.001H151v38.824H73.353z"/>
		<path fill="none" d="M73.353,38.823V-0.001H151v38.824H73.353z"/>
		<path fill="none" d="M73.353,38.823V-0.001H151v38.824H73.353z"/>
		<g id="Layer_x5F_1_3_1">
		</g>
		<rect x="73.353" y="-0.001" fill="none" width="77.647" height="38.824"/>
		<path fill="none" d="M73.353,38.823V-0.001H151v38.824H73.353z"/>
		<path fill="none" d="M73.353,38.823V-0.001H151v38.824H73.353z"/>
		<path fill="none" d="M73.353,38.823V-0.001H151v38.824H73.353z"/>
		<path fill="none" d="M73.353,38.823V-0.001H151v38.824H73.353z"/>
	</g>
</g>
</svg>
