<svg xmlns="http://www.w3.org/2000/svg" width="313" height="388.564" viewBox="0 0 313 388.564"><path fill="#EFC7B0" d="M213.812 87.37c0 25.385-21.062 68.304-45.768 78.625-3.521 1.472-7.121 2.282-10.744 2.282-3.367 0-6.715-.699-10.001-1.981-22.565-8.802-42.257-45.065-45.905-70.906-.397-2.813-.604-5.504-.604-8.02 0-16.196 0-39.295 9.834-56.543a50.598 50.598 0 0 1 2.098-3.361c4.104-6.021 9.623-11.143 17.043-14.729 7.227-3.496 16.254-5.535 27.535-5.535 15.143 0 26.227 3.673 34.34 9.605 5.207 3.811 9.191 8.552 12.238 13.851a57.205 57.205 0 0 1 3.665 7.692c4.16 10.642 5.56 22.612 6.03 33.532.239 5.534.239 10.799.239 15.488z"/><ellipse transform="scale(-1) rotate(20.684 567.529 -1120.866)" fill="#EFC7B0" cx="204.538" cy="103.562" rx="16.418" ry="25.25"/><path fill="#EFC7B0" d="M306.039 551.138c-.092-2.412-.617-4.785-.764-7.193a40.847 40.847 0 0 1-.062-2.183c1.96-51.345-8.312-147.479-10.197-153.941-3.664-12.552-47.627-219.543-93.393-198.49-25.083 11.539 48.839 156.556 54.161 182.626 1.055 5.169 23.482 64.668 29.765 141.267a1.102 1.102 0 0 0-.059.696c.767 3.434 1.075 6.939 1.641 10.405-.825.452-1.425 1.175-2.003 1.989-1.1 1.548-2.675 2.535-4.075 3.791-2.812 2.521-4.179 6.459-4.729 10.096-.246 1.62-.266 3.259-.606 4.864-.338 1.584-1.114 2.979-1.966 4.338-1.384 2.208-2.635 4.542-3.151 7.122-.469 2.342.163 4.752 2.673 5.484 2.289.669 4.209-1.476 5.404-3.095 1.36-1.841 2.332-3.979 3.337-6.024.602-1.225 1.163-2.545 2.14-3.521 1.229-1.229 3.063.6 4.024 1.357a38.95 38.95 0 0 1 1.856 1.557c-1.704 1.925-2.906 4.256-4.783 6.042-1.302 1.238-3.285 1.54-4.926 2.142-1.629.595-3.317 1.312-4.399 2.724-1.137 1.483-.203 3.269.866 4.454.214.238.468.298.701.248 1.732.092 3.498-.359 5.179-1.059a52.926 52.926 0 0 0-2.146 1.903c-1.777 1.676-3.67 3.703-4.239 6.155s.869 4.438 2.763 5.821c.336.243.664.18.896-.028a.964.964 0 0 0 .167-.027c.318-.084.625-.206.916-.354.298 1.628 1.348 3.027 3.229 3.556.444.125.777-.1.935-.418 1.004-.674 2.103-1.188 3.139-1.808-.445 1.408-.778 2.867-.787 4.335-.013 1.938 1.168 3.515 3.225 3.314 2.515-.241 3.607-2.604 4.451-4.687.492-1.215.875-2.477 1.297-3.715.501-1.476 1.262-2.751 2.021-4.106 2.033-3.617 3.95-7.283 5.301-11.217 1.553-4.54 2.381-9.613 2.198-14.42zM6.961 551.138c.092-2.412.617-4.785.764-7.193.043-.729.055-1.456.062-2.183-1.959-51.345 8.312-147.479 10.198-153.941 3.664-12.552 47.625-219.543 93.393-198.49 25.083 11.539-48.839 156.556-54.162 182.626-1.055 5.169-23.484 64.668-29.764 141.267.087.196.117.434.058.696-.766 3.434-1.075 6.939-1.64 10.405.824.452 1.424 1.175 2.003 1.989 1.101 1.548 2.675 2.535 4.076 3.791 2.813 2.521 4.178 6.459 4.729 10.096.246 1.62.264 3.259.606 4.864.337 1.584 1.114 2.979 1.966 4.338 1.383 2.208 2.635 4.542 3.15 7.122.469 2.342-.164 4.752-2.672 5.484-2.289.669-4.209-1.476-5.404-3.095-1.36-1.841-2.333-3.979-3.336-6.024-.6-1.225-1.164-2.545-2.139-3.521-1.23-1.229-3.064.6-4.025 1.357-.602.476-1.232.997-1.857 1.557 1.705 1.925 2.907 4.256 4.784 6.042 1.301 1.238 3.284 1.54 4.925 2.142 1.629.595 3.318 1.312 4.4 2.724 1.137 1.483.203 3.269-.866 4.454-.214.238-.469.298-.702.248-1.734.092-3.499-.359-5.178-1.059.73.617 1.449 1.246 2.146 1.903 1.777 1.676 3.67 3.703 4.239 6.155s-.87 4.438-2.763 5.821c-.335.243-.665.18-.895-.028a.924.924 0 0 1-.166-.027 4.595 4.595 0 0 1-.916-.354c-.299 1.628-1.349 3.027-3.231 3.556-.444.125-.777-.1-.933-.418-1.004-.674-2.103-1.188-3.14-1.808.446 1.408.778 2.867.788 4.335.012 1.938-1.168 3.515-3.225 3.314-2.512-.241-3.607-2.604-4.451-4.687-.493-1.215-.875-2.477-1.297-3.715-.502-1.476-1.26-2.751-2.021-4.106-2.033-3.617-3.951-7.283-5.301-11.217-1.559-4.54-2.387-9.613-2.203-14.42z"/><path fill="#EFC7B0" d="M229.383 258.802c.137 6.721.105 13.302-.412 19.544a379.877 379.877 0 0 0-.021 3.992c0 48.052-22.541 47.356-70.595 47.356h-.896c-.054 0-.104-.057-.156-.057-.047 0-.095-.059-.143-.061-47.246.011-70.235.354-70.235-47.301 0-1.191-.008-2.386-.022-3.58-.742-7.521-.772-15.517-.629-23.701-.135-6.718-.104-13.283.412-19.524.015-1.319.022-2.889.022-4.208 0-46.682 21.276-47.569 66.551-47.569h4.939c.054 0 .104.27.154.27.049 0 .097.161.144.161 47.247-.008 70.234-.297 70.234 47.355 0 1.191.01 2.411.021 3.604.746 7.524.776 15.538.632 23.719z"/><ellipse transform="rotate(-20.684 109.412 103.541)" fill="#EFC7B0" cx="109.41" cy="103.539" rx="16.418" ry="25.249"/><path fill="#EFC7B0" d="M155.023 224.111a73.292 73.292 0 0 1-2.112-.055 96.8 96.8 0 0 1 2.112.055z"/><path fill="#009245" d="M175.01 184.625c-.092-.368-.184-.554-.271-1.111h.081c.064.557.128.727.19 1.111z"/><path fill="#EFC7B0" d="M174.792 183.583c.056.245.056.275.128.518l-17.476 39.593h-.099c-.17 0-.352.217-.518.214-.613.006-1.217.109-1.801.098-.717-.027-1.426.009-2.115-.002-28.17-1.091-19.878-15.93-15.088-39.779 1.453-7.233 2.583-15.278 2.273-24.03-1.582-44.943-26.404-65.278 18.566-65.278s13.241 20.318 13.241 65.288c0 6.011.589 11.544 1.48 16.615.419 2.35.897 4.606 1.409 6.763zM158.913 224.1c-.423.011-.96.017-1.372.017l17.621-39.806c.039.128.338.253.338.381v.003c6 27.194 19.104 38.693-16.587 39.405z"/><path fill="#009245" d="M231.5 196.893v294.422c0 2.176-2.078 3.379-4.77 3.379H86.205c-2.691 0-4.705-1.203-4.705-3.379V201.34c0-.317.473-.632.75-.941 1.475-1.63 2.919-3.167 4.411-4.594 3.228-3.095 6.466-5.629 9.719-7.622 4.781-2.919 9.535-4.489 14.205-4.489h17.063c-.707 1-1.196 3.17-1.336 5.421-2.481 39.717 7.547 34.671 26.6 34.969.688.011 1.396.014 2.112.042.654.025 1.322.051 2.001.093 0 0-.072-.035-.209-.095.167.002.337-.002.507-.004-.141.063-.215.093-.215.093 21.706-1.372 33.364 7.388 30.711-35.097-.141-2.249-.688-4.421-1.488-5.421h19.21c4.98 0 10.064 1.67 15.157 4.456.003.002.009-.025.015-.02.005 0 .011-.009.014-.009.016.009.03.013.045.021 1.207.74 2.42 1.56 3.628 2.464a60.551 60.551 0 0 1 3.661 2.971c.812.709 1.569 1.454 2.382 2.228.366.356 1.057.717 1.057 1.087z"/><g fill="#333"><path d="M209.771 116.043c1.359-6.805 4.043-21.154 4.043-28.673 0-16.249 0-39.446-9.935-56.713C196.083 17.098 182.16 7.2 157.302 7.2c-22.86 0-36.475 8.374-44.577 20.265a50.456 50.456 0 0 0-2.099 3.361c-9.834 17.248-9.834 40.348-9.834 56.543 0 2.516.206 5.207.604 8.02 1.058 7.494 4.744 21.79 5.779 25.737-1.251-5.114-3.617-19.088-4.158-22.904l-.062-1.304s-2.164-36.322 7.67-53.569c.657-1.146 1.41-2.233 2.099-3.361 14.438-23.651 21.438-5.319 44.3-5.319 24.856 0 29.778-20.924 46.854 8.511 9.996 17.23 6.871 55.322 6.871 55.322.003 4.73-.093 11.853-.978 17.541zM107.176 121.127c.1.402.19.75.273 1.034l-.273-1.034zM209.771 116.043a345.03 345.03 0 0 1-.775 3.761c.309-1.138.564-2.409.775-3.761z"/></g><path fill="none" d="M157.024 119.567c-8.813 0-15.956-1.929-15.956 6.397s7.142 8.501 15.956 8.501c8.811 0 15.954-.175 15.954-8.501s-7.143-6.397-15.954-6.397z"/><path fill="#333" d="M202.27 119.375c-3.061 3.061-12.271 10.901-22.658 15.81a1914.65 1914.65 0 0 1-.044-8.927c0-13.216-9.046-14.471-22.265-14.471s-22.541 1.255-22.541 14.471c0 1.494-.003 6.845.022 8.749-10.232-4.833-19.261-12.609-22.285-15.631-9.345-9.347-9.095-18.333-8.849-12.23.605 15.016 4.461 31.977 11.354 38.87 7.984 7.984 21.395 19.964 34.237 24.194 2.566 1.155 5.306 1.622 8.145 1.539 2.839.083 5.577-.384 8.146-1.539 12.843-4.23 26.25-16.21 34.232-24.194 6.896-6.893 10.747-23.854 11.354-38.87.249-6.104.499 2.881-8.848 12.229zm-45.246 15.091c-8.813 0-15.956-.175-15.956-8.501s7.142-6.397 15.956-6.397c8.811 0 15.954-1.929 15.954 6.397s-7.143 8.501-15.954 8.501z"/><path fill="none" d="M181.786 67.709c-.549 0-1.087.009-1.612.029-.566.022-1.124.056-1.666.104a.02.02 0 0 1-.008-.004c-7.021.592-11.526 3.336-12.156 10.375a21.505 21.505 0 0 0-.003 3.529c.064.804.176 1.583.329 2.337.074.362.158.721.253 1.072 1.792 6.712 7.19 11.159 14.863 11.159 9.5 0 15.714-6.82 15.714-16.324 0-9.505-6.214-12.277-15.714-12.277zM147.719 81.84a20.438 20.438 0 0 0 .012-3.543c-.612-7.046-5.195-9.824-12.188-10.447a38.939 38.939 0 0 0-3.457-.142c-1.913 0-3.683.114-5.292.371-4.275.69-7.41 2.405-9.011 5.735a.049.049 0 0 0-.011.004c-.787 1.641-1.2 3.672-1.2 6.168 0 9.503 6.011 16.324 15.514 16.324 7.614 0 13.116-4.377 15.005-11.006.102-.356.192-.718.273-1.088.165-.765.284-1.558.355-2.376z"/><path fill="#1A1A1A" d="M199.695 75.722s3.755-6.2 3.755-7.323c0-1.817-1.478-3.492-3.292-3.492-1.086 0-9.283-.214-15.721-.214h-.01c-.136 0-.271.188-.402.195-.735-.042-1.485.021-2.254.021-9.976 0-16.812 3.565-17.729 12.596a21.672 21.672 0 0 0-.089 3.071c-2.496-1.021-5.016-1.631-6.737-1.631-1.745 0-4.716.632-6.716 1.678v.001c0-.297-.175-.601-.175-.904 0-.743-.132-1.449-.201-2.123-.924-9.069-8.017-12.792-18.006-12.792-.837 0-1.703-.112-2.499-.112h-.008c-6.438 0-14.635.214-15.721.214-1.816 0-3.219 1.589-3.219 3.406 0 1.123 3.828 7.399 3.828 7.399v.006c0 1.212-.467 2.543-.467 3.992 0 10.733 7.344 19.087 18.074 19.087 9.306 0 16.035-6.214 17.665-14.841 2.555-1.113 5.433-1.889 7.263-1.889 1.8 0 4.68.643 7.265 1.753 1.558 8.571 8.145 14.958 17.478 14.958 10.731 0 18.338-8.309 18.338-19.042a18.778 18.778 0 0 0-.42-4.014zm-67.611 20.589c-9.503 0-15.514-6.82-15.514-16.324 0-2.496.414-4.527 1.199-6.168l.012-.004c1.601-3.33 4.734-5.045 9.011-5.735 1.608-.257 3.38-.371 5.292-.371 1.208 0 2.359.044 3.457.142 6.993.623 11.577 3.4 12.188 10.447a20.081 20.081 0 0 1-.011 3.543 18.21 18.21 0 0 1-.628 3.464c-1.89 6.629-7.392 11.006-15.006 11.006zm49.702 0c-7.673 0-13.071-4.447-14.863-11.159a17.439 17.439 0 0 1-.253-1.072 19.538 19.538 0 0 1-.329-2.337 21.505 21.505 0 0 1 .003-3.529c.63-7.039 5.137-9.784 12.156-10.375l.008.004c.542-.048 1.1-.083 1.666-.104.525-.02 1.063-.029 1.612-.029 9.5 0 15.714 2.772 15.714 12.278 0 9.502-6.214 16.323-15.714 16.323z"/><path fill="#006837" d="M234.038 342.203c37.268 0 54.462-.276 54.462-.276v4.403c0 2.176-1.615 4.364-3.792 4.364h-47.213c-2.177 0-2.857-1.977-2.857-4.153l-.6-4.338zM78.793 339.165c-37.268 0-54.293-.383-54.293-.383v6.063c0 2.996 1.277 5.849 3.455 5.849h47.213c2.176 0 2.941-2.642 2.941-5.638l.684-5.891z"/><path fill="#009245" d="M288.5 342.244s-17.271.023-54.538.023h-.005s-.604-.561-1.671-2.057c-.327-.455-.7-.85-1.112-1.43-8.138-11.441-31.949-58.646-42.021-84.514-15.032-38.605-19.142-69.001 17.068-70.001h.003c4.98 0 17.985.896 23.077 3.681.003.002-.006-.006 0 0 .005.005-.003-.002 0 0 1.224.749 3.45 1.962 4.673 2.875.799 1.13-.857-.716.361.349.813.71 4.202 2.909 5.014 3.683.37.356 0-.014.37.356 28.038 27.887 46.206 106.754 48.601 142.125.118 1.787.18 3.342.18 4.91zM24.681 336.851c2.395-35.372 20.562-114.238 48.601-142.125.37-.37 0 0 .37-.356.812-.774 4.2-2.973 5.014-3.683 1.219-1.065-.438.781.361-.349 1.223-.913 3.449-2.126 4.673-2.875.003-.002-.005.005 0 0 .006-.006-.003.002 0 0 5.092-2.786 18.096-3.681 23.077-3.681h.004c36.209 1 32.1 31.396 17.068 70.001-10.072 25.867-33.884 73.073-42.022 84.514-.412.58-.785.975-1.112 1.43-1.067 1.496-1.671 2.057-1.671 2.057h-.005c-37.267 0-54.538-.023-54.538-.023a71.737 71.737 0 0 1 .18-4.91z"/><path fill="#006837" d="M157.024 224.212c-21.708-1.372-33.366 7.333-30.712-35.152.14-2.251.629-4.046 1.336-5.477 3.242-6.564 11.084-5.477 11.084-5.477s-.439 2.135-.763 5.477c-.629 6.512-.804 17.61 3.609 26.437 4.902 9.8 15.446 14.192 15.446 14.192zM157.107 224.212s10.545-4.391 15.443-14.192c4.402-8.805 3.438-19.897 2.27-26.437-.604-3.381-1.266-5.543-1.266-5.543s9.089-1.043 12.773 5.543c.802 1.434 1.35 3.228 1.488 5.477 2.659 42.485-9.003 33.78-30.708 35.152z"/><path fill="#006837" d="M155.5 223.694v26c0 1 3 1 3 0v-26c0-1-3-1-3 0 0 0 0-1 0 0z"/><circle fill="#F2F2F2" cx="157.108" cy="232.282" r="2.041"/><circle fill="#F2F2F2" cx="157.108" cy="242.578" r="2.041"/></svg>