<svg xmlns="http://www.w3.org/2000/svg" width="800" height="202.941" viewBox="0 0 800 202.941"><path fill="none" d="M551.911 38.688l-.193 1.065.379-.661-.186-.404zM143.984 115.842l.282.289v-2.113c-.099.041-.189.09-.282.129v1.695zM141.5 104.629l.383-.109-.506-.645zM143.983 107.178v2.691l1.576-.697zM158.516 97.295l-3.132 1.256 4.004 5.436zM147.626 101.191l-2.961 1.606 4.599 4.959zM155.558 105.006l-3.561-5.738.346 6.738zM162.252 102.781l3.276-.732-3.054-6.009zM169.12 94.641l-3.21.983 3.525 5.76zM166.124 120.139h3.022c.179-.203.325-.434.509-.633.977-1.049 2.076-1.938 3.225-2.75v-11.631c-2.313.471-4.553.992-6.756 1.539v13.475zM158.175 120.139h6.755v-13.17c-2.313.59-4.571 1.215-6.755 1.879v11.291zM178.913 98.488l-4.276-5.214.936 6.392zM151.813 120.139h5.166v-10.922a133.303 133.303 0 0 0-5.166 1.76v9.162zM39.941 143.393l-.173.012-.806-.971.078.924-.254.082c-.288.094-.608.145-1.038.168l-.579-.01.036.037-1.266-.057.011.018c.79 1.357 1.333 2.988 1.664 4.994l.056.352-1.203.121 1.305.727.02.174c.127 1.158.181 2.416.17 3.854l-.006.549-.487-.254c-2.018-1.051-3.731-1.85-5.243-2.555-.595-.279-1.158-.537-1.678-.787l-.064-.033c.83 1.479 1.582 2.889 2.116 3.916l4.106 13.453.963 3.158 5.643-1.221V146.96h2.105v-3.951c-1.323.07-2.521.16-3.609.244-.661.056-1.283.101-1.867.14zM174.073 115.951c1.944-1.182 4.061-2.074 6.323-2.568a.88.88 0 0 1 .111-.02c.101-.027.216-.039.32-.061h.001v-9.6a177.88 177.88 0 0 0-6.755 1.193v11.056zM29.986 149.867c.128.221.255.439.378.662l-.191-1.072-.187.41zM253.392 93.337l-1.635 5.693 4.75-4.708zM259.07 101.256l.934-6.394-4.273 5.215zM181.247 91.749l-3.113.984 4.753 4.705zM22.119 174.35l-.168-.035-.107-.238-.023.121-.264.01a1.5 1.5 0 0 1-.31-.027c.296.576.623 1.23.989 1.98.478.986.961 1.949 1.445 2.898l.121.23.16.309c.287.559.576 1.092.863 1.633h.001v-6.316a88.626 88.626 0 0 0-1.722-.361c-.347-.073-.676-.138-.985-.204zM249.163 92.401l-3.383 5.422 3.27.378zM198.002 89.061l-1.761 6.085 3.467-.106zM220.247 89.315l-3.945.16.256 5.992zM210.565 88.582l-3.464 6.092 3.464.126zM224.079 90.174v6.215l3.462-.127zM236.638 90.653l-1.688 5.977 3.453.109zM145.455 117.358l2.704 2.781h2.465v-8.717a110.53 110.53 0 0 0-5.169 2.086v3.85zM269.117 103.639l3.273.73-.222-6.738zM276.126 98.887l-.876 6.691 4.007-5.437zM265.204 102.973l3.528-5.758-3.208-.984zM253.56 120.139h4.14v-2.824h3.313v-9.605h.494v-1.592a174.403 174.403 0 0 0-7.947-1.643v15.664zM245.612 120.139h6.756V104.25c-2.219-.393-4.462-.76-6.756-1.086v16.975zM279.953 106.446v.419l2.339.731.352-6.74-3.467 5.59zM262.7 107.709h1.153v-1.02c-.39-.098-.76-.201-1.153-.295v1.315zM291.967 120.139h4.935c-1.531-1.014-3.203-1.984-4.935-2.941v2.941zM294.726 113.862l2.579-2.354v-3.768l-.419-.271zM182.022 113.1c.44-.064.883-.111 1.314-.141.029-.006.064-.008.097-.012a20.79 20.79 0 0 1 5.345.336v-10.691c-2.291.271-4.542.582-6.756.92v9.588zM286.583 117.313h3.787v2.826H290.777v-3.588a94.15 94.15 0 0 0-4.194-2.078v2.84zM292.168 112.127l1.097-6.662-4.182 5.295zM287.019 102.781l-1.641 6.569 4.593-4.965zM192.71 89.823l-3.545.794 3.627 5.28zM189.97 113.547a20.583 20.583 0 0 1 5.436 2.238c.466.273.88.607 1.32.914v-14.904c-2.279.184-4.536.395-6.756.646v11.106zM197.919 117.528c.971.783 1.837 1.672 2.648 2.611H204.675V101.31c-2.275.104-4.528.238-6.756.401v15.817zM241.85 97.487l3.624-5.282-3.547-.791zM185.589 96.614l3.275-.383-3.386-5.422zM203.81 95.041l1.986-6.202-3.96.398zM213.813 101.076v19.062h4.115v-10.877h2.643v-8.122a243.85 243.85 0 0 0-5.635-.076c-.373.001-.747.013-1.123.013zM237.661 109.262h1.572v10.877h5.188v-17.125a217.331 217.331 0 0 0-6.76-.799v7.047zM229.711 101.556v2.499h5.262v5.207h1.495v-7.158a217.884 217.884 0 0 0-6.757-.548zM205.866 120.139h6.758v-19.042a234.88 234.88 0 0 0-6.758.164v18.878zM232.808 90.824l-3.96-.394 1.986 6.2zM221.765 109.262h.423v-5.207h6.335v-2.579a238.256 238.256 0 0 0-6.758-.308v8.094z"/><path d="M777.578 173.94v-2.633l1.512-3.041 1.623-3.277c.113-.396.297-1.059.486-1.812.072.176.135.342.211.533.326.826.699 1.766 1.098 2.906l.176.521.384-.396a17.2 17.2 0 0 0 1.369-1.582l.104-.139-.119-.365.252.191.203-.297c.562-.828.941-1.604 1.154-2.361l.149.135.132.145.233.225c.174.15.338.256.494.332l.238.119.084-.1-.021.262.138.105c.247.207.51.42.793.652a61.008 61.008 0 0 1 2.375 1.99l.407.363.144-.533c.19-.746.328-1.416.416-2.045l.021-.176-.278-.262.312.047.029-.361c.094-1.105.016-2.047-.223-2.875l-.062-.227-.307-.023.186-.271-.074-.176c-.02-.047-.041-.1-.065-.148.75.035 1.588.076 2.553.162l.551.045-.207-.508a18.537 18.537 0 0 0-.887-1.893l-.088-.154-.375-.041.276-.15-.19-.307c-.586-.941-1.201-1.652-1.894-2.174l-.188-.143-.258.162-.01-.334-.166-.098a4.86 4.86 0 0 0-1.955-.607c-1.521-.209-3.166-.283-4.947.537-.312-1.629-1.185-2.637-2.031-3.611l-.123-.139a4.725 4.725 0 0 0-1.588-1.326l-.164-.084-.289.17-.004-.303-.223-.082c-.816-.293-1.746-.422-2.853-.402l-.362.008.026.312-.244-.295-.178.01c-.633.051-1.309.145-2.068.291l-.538.104.338.434a64.385 64.385 0 0 1 1.813 2.463l-.131.305-.182-.244-.224.066c-.823.25-1.653.699-2.53 1.377l-.294.221.214.238-.371-.092-.133.109c-.479.418-.97.895-1.496 1.467l-.371.406.531.145c1.163.322 2.118.633 2.965.91.346.111.67.215.977.316l.162.047.211-.154-.041.119.226.141c.129.078.278.146.467.201l-.056.033.841.164c-.519.588-.957 1.326-1.354 2.246l-.139.33.303.105-.371.104-.062.164c-.213.59-.402 1.248-.578 2.006l-.125.539.533-.137c1.182-.291 2.174-.49 3.049-.666l.983-.201.168-.039.105-.236.025.123.266.008c.092.004.201-.016.307-.027a95.799 95.799 0 0 0-.985 1.982 147.44 147.44 0 0 1-1.447 2.896l-.15.291-.127.248c-.047.088-.09.166-.135.254-3.127-.201-6.256-.408-9.383-.609.092-.39.045-.193-.001 0l-6.516-.375c-3.803-.203-7.608-.367-11.424-.4-1.207-.012-2.266-.248-3.188-.646v-33.865h-4.273v-8.508h-22.223v12.189h-16.959v-9.539h-31.371v48.35H668.2v-27.57h-4.34v-6.977a9.11 9.11 0 0 1-.521-.988H639.416a8.763 8.763 0 0 1-2.071-.25v26.705h-4.181v-8.322h-.633v-31.912h-12.006l-1.211-54.916.192-7.772v-1.672h2.228c.869-1.854 2.194-3.408 3.996-4.342v-1.764h1.69c-.067-.068-.147-.124-.223-.195-.275-.278-.488-.606-.732-.906h-2.938v-2.101h1.514c-.196-.348-.416-.69-.596-1.055h-1.885v-2.102h.896l-.469-1.053H621.6v-2.099h.514c-.135-.352-.289-.703-.396-1.061h-1.074v-2.097c-.351-.917-1.496-1.799-1.935-2.631v-2.102c-2.229-3.438 1.033-5.725-2.172-6.32L614.893 7.51l-1.656 22.764c-3.205.596.045 2.883-2.17 6.32v2.102c-.436.832-1.584 1.714-1.926 2.631v2.097h-1.213c-.072.362-.175.709-.273 1.061h.523v2.099h-1.349c-.182.356-.346.725-.559 1.053h.94v2.102h-1.893a8.073 8.073 0 0 1-.592 1.055h1.524v2.101h-2.59c-.084.369-.164.748-.276 1.103h.664v1.624c1.959.907 3.396 2.523 4.315 4.48h1.91v1.672l.188 7.772-1.211 54.916h-6.113V95.931h-4.348v-4.895h-6.711v4.895h-11.25v5.616h-2.166v22.912h-.211v-5.555h-3.174v-3.445h-.312V67.212h-1.752l-.438-6.969-.438 6.969h-1.719v-2.899h-4.873l-.934-14.993-.953 14.993h-4.859v2.899h-4.35v60.411h-3.322v2.326h-.641v-9.256h-3.695v-6.225h-2.457v-2.092h-.979v-3.117h-3.839V93.155h-4.446v-3.631h-2.388l-.606-12.871-.769 12.871h-2.215v3.631h-3.084v-3.631h-2.229l-.767-12.871-.596 12.871h-2.399v3.631h-4.445v7.469H500.5V98.44h-12.781V57.218h-5.801v-4.739h-3.129l-.781-16.804-1.004 16.804h-2.906v4.739h-4.024v-4.739h-2.892l-1-16.804-.799 16.804h-3.113v4.739h-5.807v37.574h-5.451v3.445h-2.65v.202h-4.678v3.242h-6.709V23.355h-5.676v-3.783h-6.344L423.715 0l-1.219 19.571h-6.361v3.783h-2.242l-.572-9.092-.571 9.092h-2.291v97.341h-4.183v-8.314h-.633V68.173h-2.83v-7.33H388.12v-6.394h-8.759v6.394h-5.674v71.181a9.454 9.454 0 0 1-1.4 1.453h-3.412v4.195h-3.445V80.809h-2.123v-2.977h-7.137l-.41-10.139-.412 10.139h-12.705v2.977h-7.157v21.275a27.684 27.684 0 0 1-1.673-3.25V70.209h-4.684v-5.623h-3.563v-6.151H315.03l-.475-11.695-.473 11.695h-8.537v6.151h-5.563v5.623h-2.678v33.771c-17.287-11.631-47.701-19.355-82.368-19.355-38.303 0-71.439 9.423-87.379 23.139V84.843l-27.028 20.933-1.74 4.504h-4.086V97.561l-11.66 8.215-2.905 4.504H63.965v11.127H48.066l3.713 17.488h-6.357v.104l-1.158.01.99-.697-.224-.279c-1.276-1.58-2.55-2.74-3.904-3.531l-.201-.119-.674.547-.149-.955-.173-.07a8.836 8.836 0 0 0-.748-.27 118.664 118.664 0 0 1 4.061-3.389l.429-.342-.501-.227a31.475 31.475 0 0 0-3.584-1.416l-.168-.055-1.199.895.381-1.145-.35-.09c-1.965-.518-3.677-.686-5.24-.518l-.227.025-.222.844-.686-.678-.353.084a8.789 8.789 0 0 0-3.17 1.598c-2.354 1.686-4.716 3.736-6.033 7.273-2.537-1.971-5.072-2.221-7.523-2.461l-.377-.043a8.617 8.617 0 0 0-3.522.193l-.353.098-.256.932-.607-.625-.219.094c-1.438.629-2.841 1.627-4.291 3.047l-.257.254.901.803-1.48-.182-.122.129a32.485 32.485 0 0 0-2.409 3.008l-.319.445.542.084c2.245.344 4.094.709 5.722 1.033l.342.066c-.024.027-.045.057-.069.084l-.118.148.35.906-.861-.143-.115.201c-.782 1.357-1.312 2.996-1.632 5.006l-.057.355 1.205.109-1.301.734-.02.176a34.008 34.008 0 0 0-.146 3.852l.012.551.484-.256c1.998-1.061 3.699-1.865 5.198-2.574.603-.287 1.171-.555 1.702-.816l.154-.072.221-1.246.387.844.262-.057c.302-.066.611-.182.966-.359l.504-.297-.019.049 1.085-.68.002.016c-.014 1.57.328 3.258 1.037 5.162l.123.334 1.104-.492-.773 1.279.069.156a33.329 33.329 0 0 0 1.768 3.43l.281.479.298-.465c1.216-1.904 2.3-3.443 3.259-4.797.382-.547.747-1.059 1.084-1.547l.101-.143-.427-1.189.752.543.205-.178c.219-.197.436-.449.658-.785l.035-.059c.361 1.275.807 2.75 1.35 4.484a299.152 299.152 0 0 1 1.75 5.773l2.141 7.711.085.32c.221.855.438 1.736.659 2.604l-5.569 1.205a15.927 15.927 0 0 0-.295-.92l-.065-.168-.371-.104.305-.104-.139-.334c-.395-.918-.838-1.652-1.354-2.244l.838-.166-.054-.027a2.11 2.11 0 0 0 .462-.205l.23-.143-.043-.117.213.156.16-.051c.31-.096.633-.199.979-.312a63.401 63.401 0 0 1 2.965-.91l.526-.145-.365-.406a19.3 19.3 0 0 0-1.496-1.467l-.136-.115-.371.098.212-.242-.29-.219c-.878-.676-1.707-1.129-2.531-1.375l-.227-.068-.181.24-.128-.303a60.678 60.678 0 0 1 1.814-2.459l.338-.436-.541-.105a18.492 18.492 0 0 0-2.07-.287l-.173-.01-.245.295.029-.312-.365-.012c-1.107-.018-2.035.107-2.854.404l-.223.08-.001.307-.289-.172-.167.084a4.74 4.74 0 0 0-1.587 1.326l-.12.137c-.849.977-1.72 1.982-2.032 3.613-1.781-.818-3.428-.75-4.95-.537a4.883 4.883 0 0 0-1.955.609l-.166.094-.008.336-.262-.164-.188.143c-.688.521-1.306 1.232-1.891 2.174l-.191.307.28.15-.382.045-.085.154a18.115 18.115 0 0 0-.886 1.891l-.208.508.551-.047a60.807 60.807 0 0 1 2.554-.158c-.024.049-.045.102-.067.148l-.074.172.189.273-.307.023-.063.225c-.238.83-.315 1.77-.222 2.877l.026.357.313-.045-.283.264.027.178a18.6 18.6 0 0 0 .416 2.043l.139.533.41-.363a67.675 67.675 0 0 1 2.372-1.994c.288-.229.552-.441.8-.646l.133-.107-.019-.264.083.102.24-.117c.154-.078.316-.186.49-.332l.236-.227c.041-.047.086-.094.129-.146l.152-.133c.212.758.591 1.535 1.152 2.363l.201.297.252-.195-.115.365.104.143c.378.5.824 1.02 1.365 1.578l.387.4.173-.523c.401-1.145.773-2.08 1.097-2.906.077-.188.142-.355.211-.531.192.756.376 1.416.487 1.811l1.595 3.215 1.725 3.48h-.002l1.758 3.531-24.356.93v14.131h800V173.94h-22.422zm-752.752 7.291c-.288-.541-.577-1.074-.864-1.633l-.16-.309-.121-.23c-.484-.949-.967-1.912-1.445-2.898-.366-.75-.693-1.404-.989-1.98.107.018.219.033.31.027l.264-.01.023-.121.107.238.168.035c.309.066.638.131.985.203.523.104 1.103.227 1.722.361v6.317zm5.16-31.364l.187-.41.191 1.072c-.123-.222-.25-.441-.378-.662zm15.431-2.908h-2.105v23.084l-5.643 1.221-.963-3.158-4.106-13.453a142.353 142.353 0 0 0-2.116-3.916l.064.033c.52.25 1.083.508 1.678.787 1.512.705 3.225 1.504 5.243 2.555l.487.254.006-.549c.011-1.438-.043-2.695-.17-3.854l-.02-.174-1.305-.727 1.203-.121-.056-.352c-.331-2.006-.874-3.637-1.664-4.994l-.011-.018 1.266.057-.036-.037.579.01c.43-.023.75-.074 1.038-.168l.254-.082-.078-.924.806.971.173-.012a96.081 96.081 0 0 0 1.867-.141c1.088-.084 2.286-.174 3.609-.244v3.952zm207.975-53.622l3.115.984-4.75 4.708 1.635-5.692zm6.612 1.525l-.934 6.395-3.339-1.179 4.273-5.216zm-10.841-2.461l-.113 5.801-3.27-.378 3.383-5.423zm-12.525-1.748l1.765 6.086-3.453-.108 1.688-5.978zm-12.559-.479l3.462 6.088-3.462.127v-6.215zm-3.832-.859l-3.689 6.152-.256-5.992 3.945-.16zm-9.682-.733V94.8l-3.464-.126 3.464-6.092zm-12.563.479l1.706 5.979-3.467.105 1.761-6.084zm-16.755 2.688l1.64 5.688-4.753-4.705 3.113-.983zm-2.334 6.739l-3.34 1.179-.936-6.393 4.276 5.214zm-20.397-1.193l.872 6.691-4.004-5.436 3.132-1.255zm-2.958 7.711l-3.215 1-.346-6.738 3.561 5.738zm-7.932-3.815l1.638 6.565-4.599-4.959 2.961-1.606zm-6.126 3.438l-.123-.754.506.645-.383.109zm2.483 2.549l1.576 1.994-1.576.697v-2.691zm.283 8.953l-.282-.289v-1.695c.093-.039.183-.088.282-.129v2.113zm6.358 4.008h-2.465l-2.704-2.781v-3.85a110.53 110.53 0 0 1 5.169-2.086v8.717zm6.355 0h-5.166v-9.162a135.018 135.018 0 0 1 5.166-1.76v10.922zm7.951 0h-6.755v-11.291a154.793 154.793 0 0 1 6.755-1.879v13.17zm-2.678-17.358l.222-6.741 3.054 6.009-3.276.732zm6.868-8.14l.315 6.743-3.525-5.76 3.21-.983zm3.76 22.115c-1.149.812-2.248 1.701-3.225 2.75-.184.199-.33.43-.509.633h-3.022v-13.475a162.425 162.425 0 0 1 6.756-1.539v11.631zm7.948-3.453c-.105.021-.22.033-.321.061a.88.88 0 0 0-.111.02c-2.262.494-4.379 1.387-6.323 2.568v-11.055c2.206-.436 4.461-.832 6.755-1.193v9.599zm7.95-.02c-1.747-.336-3.539-.459-5.345-.336-.033.004-.068.006-.097.012-.431.029-.874.076-1.314.141v-9.588c2.214-.338 4.465-.648 6.756-.92v10.691zm-3.189-16.669l-.111-5.805 3.386 5.422-3.275.383zm7.121-6.791l.082 6.074-3.627-5.279 3.545-.795zm4.016 26.876c-.44-.307-.854-.641-1.32-.914a20.55 20.55 0 0 0-5.436-2.238v-11.105c2.22-.252 4.477-.463 6.756-.646v14.903zm7.949 3.44h-4.108c-.811-.939-1.677-1.828-2.648-2.611v-15.816c2.228-.163 4.481-.297 6.756-.401v18.828zm-.865-25.098l-1.974-5.805 3.96-.397-1.986 6.202zm8.814 25.098h-6.758v-18.878c2.235-.085 4.487-.144 6.758-.164v19.042zm7.947-10.877h-2.643v10.877h-4.115v-19.062c.376 0 .75-.013 1.123-.013 1.897 0 3.769.033 5.635.076v8.122zm7.952-5.207h-6.335v5.207h-.423v-8.094c2.277.068 4.527.177 6.758.308v2.579zm4.285-13.231l-1.974 5.806-1.986-6.2 3.96.394zm2.165 18.438v-5.207h-5.262v-2.499c2.28.149 4.533.333 6.757.548v7.158h-1.495zm9.448 10.877h-5.188v-10.877h-1.572v-7.047c2.283.234 4.541.5 6.76.799v17.125zm-2.571-22.652l.077-6.072 3.547.791-3.624 5.281zm10.518 22.652h-6.756v-16.975c2.294.326 4.537.693 6.756 1.086v15.889zm9.139-12.43h-.494v9.605H257.7v2.824h-4.14v-15.664c2.716.498 5.369 1.045 7.947 1.643v1.592zm2.346 0H262.7v-1.314c.393.094.763.197 1.153.295v1.019zm1.351-4.736l.32-6.742 3.208.984-3.528 5.758zm3.913.666l3.051-6.008.222 6.738-3.273-.73zm7.009-4.752l3.131 1.254-4.007 5.438.876-6.692zm6.166 8.709l-2.339-.73v-.42h-.776l3.467-5.59-.352 6.74zm4.727-4.815l2.952 1.604-4.593 4.965 1.641-6.569zm6.246 2.684l-1.097 6.662-3.085-1.367 4.182-5.295zm-2.488 14.674h-.407v-2.826h-3.787v-2.84a94.15 94.15 0 0 1 4.194 2.078v3.588zm1.19 0v-2.941c1.732.957 3.404 1.928 4.935 2.941h-4.935zm5.338-8.631l-2.579 2.354 2.16-6.393.419.271v3.768z"/></svg>