<svg xmlns="http://www.w3.org/2000/svg" width="800" height="274.214" viewBox="0 0 800 274.214"><path fill="#1D1D1B" d="M768.909 204a306.39 306.39 0 0 1 1.619-5.852l.091-.332-5.414-1.441-1.974 6.463 5.592 1.488.086-.326zM761.128 209.744l5.916 1.572.082-.335c.484-1.979.986-3.963 1.491-5.888l.084-.322-5.603-1.492-1.97 6.465zM797.761 177.453l.542-.083-.319-.446a33.192 33.192 0 0 0-2.407-3.006l-.123-.133-1.479.186.9-.806-.257-.25c-1.451-1.422-2.852-2.421-4.29-3.047l-.213-.094-.609.625-.256-.933-.354-.096a8.593 8.593 0 0 0-3.526-.19l-.372.038c-2.449.24-4.98.492-7.519 2.463-1.313-3.536-3.676-5.588-6.027-7.268a8.702 8.702 0 0 0-3.17-1.598l-.352-.088-.688.679-.217-.843-.229-.025c-1.561-.17-3.276-.002-5.239.514l-.348.091.38 1.146-1.191-.896-.169.054c-1.107.357-2.28.816-3.584 1.412l-.499.229.428.344a112.568 112.568 0 0 1 4.055 3.387c-.268.08-.511.172-.743.268l-.175.073-.148.955-.674-.548-.202.117c-1.353.793-2.63 1.949-3.9 3.531l-.224.281.987.695-1.496-.01-.097.142a32.275 32.275 0 0 0-2.038 3.271l-.267.482.549.02c2.266.071 4.143.219 5.797.344.662.053 1.283.101 1.867.141l.176.011.801-.971-.076.921.255.084c.288.096.608.146 1.036.164l.579-.003-.038.03 1.264-.051-.006.016c-.791 1.354-1.335 2.988-1.664 4.99l-.059.354 1.202.121-1.304.727-.018.174c-.127 1.154-.18 2.414-.17 3.852l.006.548.485-.254c2.02-1.053 3.73-1.85 5.241-2.552.593-.281 1.156-.539 1.675-.791l.066-.031c-.83 1.474-1.58 2.887-2.113 3.914l-1.864 6.107 5.41 1.436.094-.314a337.49 337.49 0 0 1 1.745-5.768 176.42 176.42 0 0 0 1.353-4.486l.033.058c.223.336.441.591.661.786l.199.178.755-.541-.426 1.188.102.145c.334.488.697 1 1.083 1.545.959 1.355 2.042 2.889 3.258 4.793l.3.465.28-.477a34.562 34.562 0 0 0 1.764-3.426l.07-.161-.775-1.277 1.104.492.123-.335c.711-1.902 1.051-3.59 1.038-5.159l.003-.018 1.082.681-.018-.048.505.297c.354.178.663.294.965.36l.264.053.386-.837.219 1.241.153.076c.531.26 1.1.527 1.704.812 1.497.712 3.196 1.513 5.193 2.573l.486.26.008-.551c.021-1.436-.024-2.694-.145-3.85l-.018-.174-1.302-.736 1.202-.111-.053-.357c-.32-2.005-.85-3.641-1.635-5l-.113-.203-.86.14.35-.9-.117-.149c-.024-.028-.044-.057-.069-.087l.34-.068c1.63-.327 3.48-.694 5.721-1.034zm-28.129 7.177l.188.409c-.127.224-.256.441-.38.662l.192-1.071z"/><path fill="#1D1D1B" d="M777.378 219.138l1.51-3.043 1.621-3.271c.113-.398.297-1.059.489-1.813l.208.532c.327.826.701 1.764 1.096 2.906l.178.52.381-.396c.542-.564.993-1.079 1.37-1.58l.102-.139-.114-.366.251.19.203-.293c.561-.83.938-1.604 1.149-2.362l.152.135c.043.048.087.097.132.142l.235.229c.173.147.336.254.49.33l.241.121.08-.102-.018.26.135.109c.247.205.511.42.794.648.69.559 1.47 1.193 2.372 1.99l.411.365.138-.533c.195-.748.329-1.416.416-2.048l.025-.173-.281-.264.313.046.028-.356c.091-1.105.016-2.046-.221-2.875l-.065-.225-.306-.025.188-.273-.072-.171c-.025-.05-.046-.102-.071-.151.754.034 1.588.078 2.555.162l.551.049-.211-.513a17.653 17.653 0 0 0-.884-1.89l-.085-.154-.381-.041.281-.15-.196-.307c-.582-.939-1.196-1.652-1.886-2.174l-.188-.141-.26.163-.01-.337-.164-.095a4.814 4.814 0 0 0-1.955-.606c-1.521-.213-3.166-.285-4.947.534-.308-1.629-1.181-2.635-2.031-3.61l-.119-.139a4.775 4.775 0 0 0-1.586-1.324l-.171-.084-.286.174-.005-.308-.218-.08c-.82-.296-1.748-.423-2.852-.401l-.363.007.027.315-.245-.297-.176.01c-.634.048-1.312.142-2.067.289l-.541.104.338.438c.73.934 1.305 1.741 1.814 2.455l-.128.305-.186-.241-.221.068c-.826.249-1.653.696-2.534 1.376l-.289.219.211.24-.371-.094-.134.112c-.478.415-.964.894-1.492 1.463l-.37.405.527.146c1.164.323 2.119.635 2.967.909.345.113.666.218.976.313l.161.053.21-.158-.039.119.228.143c.127.078.274.145.463.204l-.053.029.835.166c-.515.587-.959 1.323-1.35 2.241l-.138.332.3.104-.37.104-.061.164a18.086 18.086 0 0 0-.582 2.005l-.123.535.535-.132a68.578 68.578 0 0 1 3.047-.668l.984-.199.167-.039.104-.235.026.122.266.008c.089.004.203-.016.306-.028-.292.573-.622 1.23-.987 1.981a169.92 169.92 0 0 1-1.441 2.895l-.153.292-.128.246c-.043.087-.091.166-.135.253-3.126-.198-6.253-.406-9.377-.608.18-.773.353-1.556.533-2.319l.075-.318-5.944-1.584-1.178 3.846c-3.8-.202-7.604-.365-11.415-.4-1.209-.01-2.266-.246-3.186-.645v-33.848h-4.272v-8.504h-22.21v12.182H701.78v-9.533h-31.353V221.6h-2.364v-27.553h-4.343v-6.974a8.973 8.973 0 0 1-.519-.992H650.58l.006-.041c-.117.008-.232.018-.354.018-.219 0-.423-.021-.626-.043-.083.003-.163.012-.249.012-.094 0-.181-.01-.271-.014-.086.004-.168.012-.256.013l-.009.056h-9.531a8.585 8.585 0 0 1-2.07-.248v26.693h-4.176v-8.318h-.633v-31.895h-61.758v26.221h-1.498v-6.969h-12.303v-10.307h-9.938v-18.93h-3.431v-5.205h-5.56v5.205h-4.262v18.93h-3.548v3.458h-3.549v5.718h-2.84v-20.059h-7.334v2.838h-7.337v12.305h-10.329v-3.012h-1.187v-13.371h-16.09v13.371h-2.207v-1.248h-5.204v-3.784h-3.315v-4.261h-6.625v11.633h-2.604v11.592h-33.785c.037-14.355.653-29.35.653-32.554 0-2.656-.034-4.843.962-7.21 1.033-2.461 2.053-4.014 2.342-6.826.535-5.2.017-10.771.003-16-.011-3.578 1.646-11.498 4.204-12.917 3.394-1.886 11.091-.802 15.02-.603 3.04.154 6.148.411 9.266.255-.145-.792.229-1.813.088-2.606 3.58-1.521 2.099-2.855 3.304-5.689.564-1.32 2.266-2.635 3.019-3.969.889-1.575 2.551-.715 4.451-1.506 3.504-1.469 7.82-1.105 11.368-.647.445-1.415 2.948.185 3.391-1.154.863-.072-.534-1.89 0-2.114-9.465-5.802-18.95-1.062-28.881-2.092-4.749-.494-9.144-3.201-13.59-4.504-2.604-.766-4.853-.429-7.419-1.584-2.353-1.06-4.743-1.709-7.227-2.549-5.231-1.766-9.356-2.312-9.61-8.786-.114-2.925-.099-5.599-.601-8.423-.531-2.988-1.949-3.723-4.831-4.795-6.96-2.586-10.235-.958-11.917 5.776-.571 2.288-1.17 4.917-.449 7.274.771 2.529 2.319 3.664 2.479 6.477.066 1.172.014 2.398-.048 3.56-4.986.274-8.11-.419-12.259 2.515-3.018 2.129-7.028 3.48-10.743 4.209-6.865 1.35-15.326.779-22.308.83l-3.004.601c-4.1 0-8.049.186-11.417.903-1.853.391-3.608.197-4.209 2.395-.583 2.137 1.151 3.678 3.263 3.357.281 2.921 11.542.697 13.53 1.43 5.036 1.857 2.491 8.752 6.271 11.44 2.353 1.673 7.087.322 9.999.602 4.667.444 10.031 1.089 15.004 1.499 3.694.307 4.298.386 4.806 3.907.327 2.266.548 4.448.667 6.909.595 12.121.835 24.962.835 36.944 0 5.172.903 9.712.903 15.02v10.626h-6.262v-2.236h-1.426v-.826l-3.662-4.552v-5.851s-.194-.013-.517-.092l-.122-1.162-.113 1.094c-1.49-.436-4.818-2.096-6.569-8.271v-.011c.186-.01.333-.054.333-.108 0-.056-.153-.099-.351-.104l-.036-2.311-.035 2.311c-.195.006-.35.049-.35.104 0 .055.146.099.333.108l-.001.003c-1.764 6.239-5.143 7.87-6.611 8.292l-.114-1.107-.124 1.17c-.296.071-.475.084-.475.084v2.545h-16.69v-4.663h-1.706v-4.304h-2.293l-4.597-7.264v-12.591s-.325-.028-.872-.198l-.203-2.496-.2 2.354c-2.516-.945-8.141-4.513-11.096-17.795l-.006-.027c.317-.018.561-.113.561-.229 0-.121-.258-.221-.588-.23l-.062-4.971-.056 4.971c-.335.01-.595.109-.595.23 0 .115.248.211.565.229v.006c-2.983 13.426-8.697 16.937-11.179 17.846l-.195-2.383-.208 2.52c-.505.149-.802.175-.802.175v12.591l-6.386 9.785v1.782h-2.204v6.556h-5.961v7.008h-4.215v-.217h-1.421v-.826l-3.666-4.552v-5.851s-.194-.013-.518-.092l-.123-1.162-.113 1.094c-.84-.244-2.266-.884-3.666-2.501v-15.146h-3.785v-6.755h-3.314v-2.841h-3.312v-1.264h-16.088v1.264h-2.839v9.596h-3.313v40.699h-7.57v4.843h-8.52v-29.45h-2.365v-24.135h-4.26v-5.204h-12.776v5.204h-4.26v24.135h-2.364v8.88h-13.015v12.308h-10.649v-8.399h-4.243l-.008-.055-.057.003c-.07 0-.134-.008-.203-.01-.068.003-.134.01-.204.01a5.94 5.94 0 0 1-.489-.026 5.608 5.608 0 0 1-.542.026c-.092 0-.177-.01-.267-.014l.01.065h-6.402v-3.776h-27.244V168.08h-15.619v18.469H123.95v31.331h-2.366v-27.554h-11.356v27.554h-3.311v-15.235h-4.262v-6.32H91.302v12.479h-4.734v-8.313h-6.625v8.313h-2.842v-18.477H51.312v4.481h-7.807v23.072l-5.64 1.22-.964-3.155-5.602 1.491.084.321c.226.853.438 1.734.657 2.603l-5.564 1.205a13.785 13.785 0 0 0-.297-.923l-.061-.166-.373-.102.305-.104-.143-.334c-.388-.916-.834-1.654-1.35-2.243l.84-.165-.056-.03c.19-.06.335-.124.464-.2l.227-.145-.039-.117.211.154.162-.049.977-.314a66.84 66.84 0 0 1 2.962-.907l.53-.147-.371-.406a18.75 18.75 0 0 0-1.491-1.466l-.135-.11-.371.092.211-.238-.289-.221c-.879-.676-1.708-1.126-2.533-1.375l-.223-.068-.186.241-.127-.305a62.995 62.995 0 0 1 1.814-2.456l.338-.434-.539-.106a18.637 18.637 0 0 0-2.07-.288l-.177-.01-.243.297.027-.314-.363-.011c-1.104-.019-2.031.108-2.852.403l-.221.08-.002.307-.289-.172-.166.082a4.848 4.848 0 0 0-1.588 1.326l-.122.141c-.847.976-1.721 1.98-2.027 3.609-1.783-.82-3.428-.748-4.947-.535a4.828 4.828 0 0 0-1.956.607l-.163.095-.01.336-.262-.166-.188.145c-.687.521-1.306 1.23-1.886 2.172l-.195.308.281.148-.379.043-.088.156c-.303.55-.589 1.166-.886 1.889l-.208.508.553-.044a60.024 60.024 0 0 1 2.553-.163c-.026.05-.049.104-.068.148l-.076.176.193.273-.311.023-.062.226c-.239.827-.315 1.767-.221 2.872l.027.36.312-.046-.283.264.026.173c.086.63.224 1.296.413 2.045l.14.535.411-.368c.903-.797 1.683-1.43 2.37-1.988.284-.229.55-.444.799-.648l.132-.111-.018-.26.08.101.242-.116a2.48 2.48 0 0 0 .492-.336l.236-.223c.04-.049.086-.096.129-.145l.15-.133c.213.757.591 1.531 1.154 2.36l.2.297.25-.194-.114.367.102.139c.379.5.827 1.018 1.37 1.581l.381.396.178-.522c.395-1.14.768-2.077 1.092-2.902.08-.188.143-.358.212-.532.192.756.376 1.412.489 1.811l1.591 3.217 1.726 3.471v.004l1.756 3.528L0 236.63v106.584h800V221.767l-22.622-2.629zm-752.354 9.917c-.289-.542-.576-1.07-.867-1.63l-.157-.308-.12-.232c-.484-.947-.966-1.908-1.445-2.896-.366-.753-.693-1.408-.986-1.979.103.014.215.033.307.028l.266-.011.023-.121.109.238.167.035c.308.065.634.133.981.201.523.106 1.104.229 1.723.363v6.312z"/><path fill="#1D1D1B" d="M29.472 210.811a301.425 301.425 0 0 1 1.619 5.855l.089.325 5.587-1.489-1.973-6.46-5.416 1.439.094.33zM11.23 200.363c.602-.286 1.17-.553 1.7-.814l.157-.072.216-1.246.388.842.262-.059c.304-.062.608-.178.964-.357l.505-.294-.015.051 1.082-.685v.016c-.011 1.569.33 3.26 1.039 5.159l.123.337 1.104-.494-.771 1.279.065.156c.465 1.063 1.046 2.184 1.767 3.428l.281.479.296-.465a113.535 113.535 0 0 1 3.258-4.793c.386-.549.745-1.059 1.083-1.545l.099-.143-.423-1.189.754.54.202-.179a4 4 0 0 0 .659-.783l.036-.059c.36 1.274.802 2.75 1.347 4.484a308.529 308.529 0 0 1 1.748 5.77l.093.314 5.411-1.437-1.865-6.104a123.128 123.128 0 0 0-2.113-3.914l.063.029c.524.253 1.083.511 1.677.789 1.512.703 3.225 1.5 5.242 2.553l.486.256.006-.55c.009-1.437-.043-2.697-.17-3.851l-.018-.175-1.303-.727 1.199-.12-.056-.354c-.33-2.002-.874-3.634-1.662-4.991l-.01-.015 1.265.054-.035-.035.576.007c.428-.021.748-.071 1.037-.163l.254-.086-.079-.92.804.97.174-.011c.585-.041 1.205-.087 1.869-.141 1.655-.127 3.531-.273 5.797-.344l.551-.02-.266-.48a32.862 32.862 0 0 0-2.038-3.274l-.101-.139-1.492.009.984-.699-.224-.278c-1.271-1.581-2.548-2.736-3.899-3.528l-.2-.123-.675.551-.15-.957-.172-.07a7.623 7.623 0 0 0-.746-.266 114.755 114.755 0 0 1 4.055-3.391l.43-.34-.498-.229a32.563 32.563 0 0 0-3.588-1.416l-.165-.051-1.194.894.379-1.146-.347-.088c-1.965-.518-3.677-.685-5.239-.518l-.229.025-.218.846-.685-.682-.354.088a8.746 8.746 0 0 0-3.168 1.597c-2.355 1.684-4.714 3.733-6.025 7.271-2.54-1.973-5.072-2.223-7.524-2.461l-.373-.041a8.61 8.61 0 0 0-3.525.193l-.351.095-.259.931-.609-.624-.213.093c-1.436.627-2.839 1.623-4.29 3.046l-.257.251.9.809-1.479-.185-.125.128a33.497 33.497 0 0 0-2.406 3.004l-.32.449.545.082c2.243.344 4.09.71 5.719 1.032l.339.064c-.025.032-.044.06-.07.085l-.114.15.348.905-.86-.14-.115.2c-.784 1.36-1.316 2.995-1.634 5.003l-.053.354 1.199.11-1.299.736-.017.174a33.535 33.535 0 0 0-.145 3.852l.01.549.484-.258c2.001-1.058 3.703-1.86 5.2-2.57zm18.953-2.654l.187-.408.192 1.067c-.126-.22-.25-.441-.379-.659z"/></svg>