<svg xmlns="http://www.w3.org/2000/svg" width="800" height="274.214" viewBox="0 0 800 274.214"><g fill="#1D1D1B"><path d="M37.049 211.997a374.49 374.49 0 0 1 2.03 7.336l.111.409 7.001-1.867-2.473-8.095-6.787 1.803.118.414zM10.087 187.355l.425.077c-.032.044-.055.078-.088.109l-.143.186.437 1.135-1.079-.175-.145.253c-.981 1.7-1.649 3.749-2.046 6.268l-.067.443 1.502.138-1.627.92-.021.221c-.147 1.447-.208 3.026-.183 4.825l.013.688.606-.322c2.508-1.323 4.64-2.327 6.517-3.218.754-.357 1.466-.693 2.13-1.021l.197-.087.27-1.562.486 1.059.329-.079c.381-.074.762-.225 1.208-.441l.634-.37-.02.063 1.356-.86v.022c-.014 1.964.413 4.087 1.302 6.463l.155.425 1.382-.619-.966 1.6.081.196c.584 1.331 1.312 2.739 2.215 4.294l.353.602.37-.582c1.525-2.383 2.881-4.311 4.083-6.006.483-.689.934-1.33 1.357-1.936l.125-.183-.53-1.487.945.676.253-.226c.273-.241.548-.561.826-.979l.045-.076a203.356 203.356 0 0 0 1.688 5.618 379.783 379.783 0 0 1 2.19 7.231l.116.392 6.781-1.8-2.338-7.65a154.521 154.521 0 0 0-2.646-4.903l.079.035c.656.319 1.357.643 2.101.988 1.896.88 4.042 1.878 6.569 3.199l.609.32.008-.686c.011-1.804-.055-3.381-.213-4.83l-.024-.223-1.632-.909 1.503-.149-.071-.443c-.414-2.51-1.095-4.556-2.083-6.255l-.012-.021 1.584.07-.043-.045.721.011c.537-.024.937-.092 1.3-.204l.318-.109-.1-1.153 1.008 1.217.218-.014c.732-.052 1.509-.107 2.342-.179 2.075-.16 4.425-.34 7.264-.432l.691-.025-.333-.602c-.871-1.58-1.708-2.919-2.555-4.102l-.126-.174-1.87.012 1.233-.875-.281-.347c-1.593-1.984-3.192-3.429-4.886-4.422l-.25-.153-.846.689-.188-1.197-.216-.088a8.705 8.705 0 0 0-.934-.335c1.449-1.257 3.083-2.666 5.081-4.254l.539-.424-.624-.287c-1.636-.752-3.104-1.329-4.497-1.774l-.207-.064-1.497 1.125.475-1.438-.436-.11c-2.462-.647-4.607-.859-6.565-.647l-.286.028-.274 1.061-.858-.855-.443.108a11.065 11.065 0 0 0-3.97 2.004c-2.951 2.112-5.907 4.678-7.55 9.11-3.184-2.471-6.355-2.785-9.428-3.083l-.467-.051a10.763 10.763 0 0 0-4.418.241l-.44.116-.325 1.17-.763-.782-.267.12c-1.799.783-3.558 2.031-5.375 3.814l-.321.315 1.127 1.015-1.853-.233-.157.161c-.978 1.076-1.966 2.308-3.015 3.765l-.401.562.683.102c2.813.434 5.128.895 7.169 1.294zm28.088 7.71l.24 1.339c-.158-.276-.313-.553-.475-.829l.235-.51z"/><path d="M796.108 214.18v-10.462h-.799v-6.768H727.5v-30.34h-12.214c.239-13.002.668-24.237.668-27.241-.001-3.339-.044-6.089 1.209-9.066 1.299-3.095 2.582-5.048 2.944-8.584.674-6.54.021-13.546.004-20.122-.016-4.5 2.068-14.46 5.288-16.245 4.269-2.372 13.944-1.008 18.89-.758 3.822.193 7.729.517 11.651.32-.185-.996.288-2.28.108-3.277 4.503-1.913 2.642-3.59 4.155-7.154.71-1.661 2.851-3.314 3.797-4.991 1.118-1.981 3.208-.899 5.599-1.894 4.406-1.848 9.834-1.39 14.297-.814.56-1.779 3.708.233 4.266-1.451 1.085-.091-.673-2.377 0-2.659-11.903-7.296-23.832-1.336-36.321-2.631-5.972-.622-11.5-4.026-17.091-5.665-3.272-.963-6.103-.539-9.329-1.992-2.96-1.333-5.965-2.149-9.09-3.205-6.578-2.221-11.765-2.908-12.085-11.05-.143-3.678-.124-7.041-.755-10.592-.669-3.757-2.452-4.682-6.076-6.03-8.753-3.252-12.871-1.205-14.986 7.264-.719 2.877-1.472 6.183-.563 9.147.971 3.181 2.917 4.608 3.118 8.146.082 1.474.018 3.015-.062 4.477-6.271.344-10.2-.527-15.418 3.163-3.795 2.677-8.838 4.376-13.511 5.293-8.632 1.698-19.272.979-28.054 1.044l-3.778.756c-5.155 0-10.121.233-14.357 1.136-2.329.492-4.536.248-5.293 3.012-.731 2.688 1.447 4.625 4.104 4.221.352 3.673 14.515.877 17.014 1.799 6.333 2.335 3.133 11.006 7.887 14.387 2.959 2.104 8.913.405 12.575.757 5.869.558 12.615 1.37 18.868 1.885 4.646.385 5.405.485 6.044 4.912.412 2.851.689 5.595.839 8.689.748 15.242 1.051 31.393 1.051 46.461 0 6.393 1.094 12.022 1.131 18.552h-12.437v30.341h-2.276v-6.131h-18.707v-12.961h-15.111v-23.807h-5.218v-6.545h-8.456v6.545h-6.48v23.807h-5.395v4.348h-5.397v7.191h-4.32v-25.227h-11.15v3.57h-11.158v15.473h-15.705v-3.787h-1.807v-16.814h-11.119v30.979h-1.405l-.001.357.001-.359H530.5v-30.977h-11.038v16.814h-2.774v-1.568h-6.546V173.1h-4.169v-5.358h-8.332v14.629h-3.273v11.219h-5.466v-2.451h-1.794V190.1l-4.604-5.727v-7.356s-.245-.017-.649-.116l-.153-1.462-.144 1.377c-1.873-.549-6.06-2.638-8.262-10.399v-.017c.233-.013.419-.066.419-.135 0-.071-.19-.126-.439-.133l-.046-2.906-.045 2.906c-.244.009-.438.062-.438.133 0 .068.184.123.419.135l-.001.005c-2.219 7.845-6.469 9.896-8.312 10.427l-.145-1.394-.157 1.474c-.371.09-.597.104-.597.104v3.2H442.96v-5.863h-2.146v-5.414h-2.886l-5.779-9.135V143.97s-.409-.035-1.099-.25l-.255-3.139-.252 2.961c-3.164-1.188-10.237-5.676-13.954-22.378l-.008-.033c.398-.023.706-.143.706-.289 0-.152-.324-.279-.74-.289l-.077-6.252-.068 6.252c-.422.012-.748.136-.748.289 0 .144.312.265.71.289v.007c-2.018 9.078-5.026 14.548-7.864 17.846-2.439 2.836-4.752 4.066-6.195 4.596l-.245-2.996-.262 3.17c-.635.188-1.008.222-1.008.222v15.833l-8.032 12.306v2.241h-2.771v8.244h-7.497v8.812h-5.3v-.272h-1.788v-1.04l-4.61-5.724v-7.358s-.245-.019-.651-.115l-.155-1.461-.143 1.376c-1.056-.309-2.849-1.109-4.61-3.146v-19.049h-4.759v-8.494h-4.167v-3.572h-4.165v-1.59H331.91v1.59h-3.57v12.066h-4.167v51.186h-9.52v6.089h-10.714v-37.035h-2.975V144.51h-5.357v-6.547H279.54v6.547h-5.357v30.353h-2.973v11.168h-16.367v15.479H241.45v-10.562h-5.336l-.01-.068-.072.002c-.088 0-.168-.01-.255-.012-.085.004-.168.012-.256.012-.213 0-.414-.016-.616-.03-.221.021-.446.03-.681.03-.116 0-.223-.012-.336-.018l.013.081h-8.051v-4.747h-34.262v-27.91h-19.642v23.228h-16.068v39.401h-2.976v-34.653h-14.281v34.651h-4.164v-19.158h-5.36v-7.947H114.82v15.69h-5.953v-10.455h-8.332V209.5h-3.574v-23.234H64.529v5.635h-9.818v29.016l-7.092 1.535-1.213-3.97-7.045 1.875.105.403c.285 1.072.551 2.182.827 3.271l-6.997 1.516a17.016 17.016 0 0 0-.374-1.158l-.077-.209-.469-.129.384-.131-.18-.422c-.488-1.149-1.049-2.078-1.698-2.819l1.056-.206-.07-.039c.24-.075.421-.154.584-.25l.286-.184-.05-.146.265.193.204-.062 1.229-.396a85.016 85.016 0 0 1 3.725-1.144l.667-.185-.467-.512a23.34 23.34 0 0 0-1.875-1.842l-.17-.141-.467.113.266-.299-.364-.276c-1.105-.853-2.147-1.415-3.186-1.729l-.28-.086-.234.305-.16-.383a80.16 80.16 0 0 1 2.281-3.092l.425-.545-.678-.133a22.717 22.717 0 0 0-2.604-.363l-.222-.013-.306.374.034-.395-.457-.016c-1.388-.023-2.554.137-3.587.506l-.277.102-.002.387-.363-.217-.209.104a6.11 6.11 0 0 0-1.997 1.668l-.153.18c-1.065 1.228-2.164 2.487-2.55 4.537-2.241-1.031-4.31-.94-6.221-.672a6.017 6.017 0 0 0-2.46.764l-.205.119-.012.422-.33-.207-.236.182c-.864.654-1.643 1.547-2.372 2.73l-.246.389.354.186-.478.055-.11.197a22.785 22.785 0 0 0-1.114 2.373l-.261.641.695-.055a77.052 77.052 0 0 1 3.211-.205 2.038 2.038 0 0 0-.085.188l-.096.221.243.344-.392.028-.078.284c-.3 1.039-.396 2.223-.277 3.609l.034.455.393-.06-.356.332.033.218c.108.791.282 1.629.519 2.572l.176.672.517-.464c1.135-1.002 2.117-1.798 2.98-2.499.357-.288.691-.561 1.005-.814l.166-.14-.023-.327.101.127.305-.146c.193-.099.398-.231.619-.423l.296-.279c.05-.062.108-.121.163-.184l.188-.166c.268.951.744 1.926 1.452 2.968l.251.372.314-.243-.143.462.128.176c.477.629 1.04 1.28 1.723 1.987l.479.498.224-.655c.497-1.436.966-2.613 1.374-3.65.101-.235.18-.448.267-.67.241.951.473 1.775.615 2.279l2.001 4.045 2.171 4.365v.005l2.208 4.437L0 244.494v33.113h800.454V214.18h-4.346z"/></g></svg>