<svg xmlns="http://www.w3.org/2000/svg" viewBox="0 0 504 130.479"><path d="M489.06 116.22l1.061-2.14 1.011-2.04c.069-.261.19-.67.311-1.142.039.11.09.222.141.33.199.521.43 1.11.68 1.82l.109.33.229-.25c.351-.351.63-.67.859-.99l.07-.09-.07-.22.15.108.131-.18c.35-.521.59-1.01.719-1.47l.101.08c.03.028.051.05.07.08l.159.148c.101.09.211.15.301.2l.15.08.049-.061-.01.159.08.07c.159.12.319.26.51.399.42.351.91.75 1.479 1.25l.25.221.091-.33c.119-.46.21-.88.26-1.28l.021-.108-.181-.16.201.029.01-.229c.06-.69.01-1.28-.141-1.79l-.029-.14-.2-.021.12-.17-.041-.11c-.02-.028-.029-.06-.049-.09.47.021 1 .04 1.6.102l.34.028-.119-.318c-.19-.45-.37-.841-.561-1.19l-.061-.09-.229-.03.18-.1-.13-.181c-.358-.591-.75-1.039-1.18-1.359l-.11-.09-.17.1v-.21l-.109-.06a3.217 3.217 0 0 0-1.221-.381c-.949-.131-1.979-.17-3.101.341-.189-1.03-.729-1.66-1.26-2.261l-.08-.091a2.952 2.952 0 0 0-.99-.83l-.109-.05-.18.11v-.19l-.141-.05c-.511-.189-1.09-.271-1.789-.25h-.222l.011.2-.149-.19-.109.011c-.391.021-.812.091-1.29.181l-.341.06.211.271c.459.59.811 1.1 1.141 1.54l-.08.188-.121-.148-.14.04c-.2.06-.409.159-.62.27h-1.93c.1-.35.188-.7.289-1.04l.061-.21-3.289-.87v-.3l3.369.9.061-.2c.369-1.271.721-2.45 1.09-3.61.341-1.09.62-2.01.851-2.8l.021.04c.141.2.271.36.409.49l.131.108.471-.35-.261.75.051.09c.209.3.438.63.68.96.601.86 1.279 1.82 2.041 3.01l.188.28.17-.29c.46-.779.82-1.479 1.109-2.14l.041-.11-.479-.8.688.31.08-.21c.44-1.188.649-2.238.641-3.229l.011-.01.68.43-.021-.03.314.185c.22.108.41.188.6.229l.17.04.24-.53.13.78.102.04c.33.17.688.33 1.069.51.931.44 2 .95 3.25 1.61l.3.16.01-.34c.011-.9-.021-1.69-.101-2.41v-.11l-.819-.46.75-.07-.029-.22c-.2-1.26-.53-2.28-1.03-3.13l-.06-.13-.541.09.211-.57-.07-.09c-.01-.02-.02-.03-.04-.05l.21-.04c1.021-.21 2.181-.43 3.58-.65l.341-.05-.199-.279a20.393 20.393 0 0 0-1.512-1.881l-.068-.08-.932.11.561-.5-.16-.149c-.898-.899-1.779-1.521-2.68-1.909l-.13-.062-.391.392-.16-.592-.22-.05c-.72-.2-1.47-.229-2.2-.12l-.229.021c-1.539.148-3.119.31-4.709 1.54-.82-2.21-2.301-3.49-3.771-4.54a5.296 5.296 0 0 0-1.99-1.01l-.209-.052-.439.432-.131-.54-.149-.011c-.97-.101-2.04 0-3.271.319l-.221.062.24.72-.74-.562-.109.03c-.699.22-1.439.51-2.25.891l-.311.141.271.21c1 .79 1.81 1.49 2.529 2.12a5.47 5.47 0 0 0-.461.17l-.109.04-.09.6-.42-.34-.131.07c-.84.5-1.64 1.22-2.439 2.21l-.14.17.62.438h-.931l-.069.08a21.223 21.223 0 0 0-1.271 2.052l-.17.3.34.02c1.42.04 2.59.13 3.63.21.409.03.811.062 1.17.09l.102.012.52-.61-.061.58.16.05c.18.062.391.09.649.102l.359-.012-.021.03.779-.03c-.489.852-.829 1.87-1.029 3.13l-.04.222.75.068-.818.46-.012.11c-.079.72-.109 1.51-.101 2.41v.34l.311-.16c1.261-.66 2.33-1.16 3.271-1.6.371-.17.721-.33 1.051-.49l.04-.02c-.511.92-.979 1.81-1.32 2.448l-1.148 3.771v-1.05h-8.951v3.52h-6.959v-5.77h2.01v-2.15h-74.93v2.15h1.199v1.898h-6.18l-4.939-3.85v-.2h-.25L346.13 67.49l-5.261 5.56-.141-.14v-.28h-.299l-6.57-6.19-35.65-33.528-20.289 21.447-14.34-13.35-38.55 40.741.03-7.91h-1.96l-.48 10.45-2.62 2.78v-2.29h-2.6l.01-10.939h-3.25v6.3s-2.22-3.1-4.82-4.569c-2.66-1.521-4.36-1.729-4.36-1.729v-5.41l.33-.03v-.39l-.5-.22h-.33s-.21-1.682-1.52-1.682-1.53 1.682-1.53 1.682h-.33l-.49.22v.39l.33.03v5.41s-1.8 0-4.36 1.729c-4.47 2.979-7.05 8.449-7.05 8.449v4.472l-3.399 1.329V104.6h-3.74V77.66h-2.36v-4.222h-2.08V71.66h-2.07v-.802h-10.07V35.83l2.32-4.3h-4.31V20.92h-1.66v-2.65h-2.15v-6.63h-1.69V0h-.93v11.64h-1.69v6.63h-1.82v2.65h-1.99v10.61h-3.64l2.31 4.3v51.89h-.15V72.63h-2.66v-3.26h-7.99v3.26h-2.67v15.09h-1.49v5.562h-8.14v7.698h-6.44l-.21-.17v-5.09h-.76v-5.76h.34c.02 0 .14-.76.14-.76s.07-.12.07-.21v-.592c0-.1-.05-.14-.12-.14h-.49v-4.67h.141c.02 0 .14-.86.14-.86s.07-.12.07-.21v-.59c0-.109-.05-.14-.12-.14h-.3V77.5s.08-.062.08-.13c0-.08.01-.222.01-.222s.09-.02.09-.158v-.33s.07 0 .08-.11v-.271s.07-.061.07-.221v-.54c0-.1-.03-.14-.12-.14h-.34l-.05-5.14s.061-.012.061-.07c0-.062-.061-.07-.061-.07v-.688l.04-.07.01-.18c0-.012-.03-.03-.05-.03-.01 0-.68-7.07-.68-7.07l-.02-.37c.02 0 .09-.01.09-.148 0-.142-.09-.142-.09-.142v-.16s.04-.012.04-.102-.07-.108-.07-.108v-.21c.03 0 .07-.011.07-.091 0-.108-.09-.188-.09-.188v-.12s.03 0 .03-.04c0-.05-.05-.07-.05-.07v-.18s.09-.01.09-.17c0-.102-.06-.12-.06-.12s.04.07.01.16c-.01.05-.04.06-.06.06a.07.07 0 0 1-.07-.06c-.01-.09.02-.16.02-.16s-.05.02-.05.12c0 .16.08.17.08.17v.18s-.05.021-.05.07c0 .04.04.04.04.04v.12s-.09.08-.09.188c0 .08.04.091.06.091v.211s-.06.02-.06.108.04.102.04.102v.158s-.09 0-.09.142c0 .14.07.148.09.148l-.02.37s-.67 7.07-.68 7.07c-.02 0-.05.02-.05.03 0 .01.02.18.02.18l.03.07v.69s-.06.01-.06.07c0 .06.06.07.06.07l-.05 5.14h-.34c-.07 0-.13.04-.13.14v.54c0 .16.08.222.08.222v.27c.01.11.08.11.08.11v.33c0 .14.08.158.08.158s.02.142.02.222c0 .068.07.13.07.13v4.29h-.31c-.05 0-.11.029-.11.14v.59c0 .09.07.21.07.21s.13.86.149.86h.14v4.67h-.49c-.07 0-.12.04-.12.14v.592c0 .09.07.21.07.21s.12.76.14.76h.33v2.13c-.07-.08-.13-.78-.87-.78-.72 0-.74.73-.8.8-.07.07-.26.092-.26.092v.108l.1.102v.68h-1.88v-1.69h.19v-.165l-1.06-.342h-3.6s-.02-.88 0-.88.17-.97.17-.97.07-.14.07-.25v-.67c0-.12-.07-.16-.12-.16h-.57v-5.66h.16c.02 0 .17-.979.17-.979s.07-.142.07-.24V80.4c0-.1-.06-.148-.13-.148h-.35V75.4s.08-.068.08-.158c0-.092.03-.24.03-.24s.09-.021.09-.181v-.369s.08 0 .09-.142c.01-.14.01-.3.01-.3s.08-.08.08-.24v-.63c0-.1-.05-.148-.15-.148h-.39l-.05-5.46s.07-.012.07-.08c0-.07-.07-.092-.07-.092v-.78l.04-.07.01-.21c0-.01-.02-.03-.05-.03-.01 0-.77-8.02-.77-8.02l-.02-.42s.09.02.09-.16c0-.16-.09-.17-.09-.17v-.18s.05-.011.05-.109c0-.11-.08-.141-.08-.141v-.23c.02 0 .05-.01.05-.1 0-.12-.09-.23-.09-.23v-.12s.04 0 .04-.05-.04-.07-.04-.07v-.2s.09-.021.09-.199c-.01-.08-.05-.12-.05-.142 0 .03.03.102 0 .182 0 .068-.04.08-.07.068-.03.012-.07 0-.08-.068-.01-.08.01-.15.01-.182-.02.012-.04.052-.04.142-.01.18.08.199.08.199v.199s-.05.021-.05.07.05.05.05.05v.12s-.1.11-.1.23c0 .09.04.1.06.1v.229s-.08.029-.08.141c0 .1.06.109.06.109v.181s-.11.01-.11.17c0 .18.1.16.1.16l-.01.42s-.77 8.02-.79 8.02-.05.021-.05.03c0 .021.02.21.02.21l.03.07v.778s-.07.021-.07.092c0 .068.09.079.09.079l-.07 5.461h-.38c-.11 0-.15.05-.15.148v.63c0 .16.08.24.08.24v.3c.01.142.1.142.1.142v.369c0 .159.09.181.09.181s.03.148.03.24c0 .09.07.158.07.158v4.852h-.34c-.07 0-.13.05-.13.148v.69c0 .1.07.24.07.24s.14.979.16.979h.17v4.471l-.45-.301v-1.43l.12-.07v-.156s-.31-.149-.34-.229c-.04-.09-.04-.36-.44-.93-.4-.58-1.08-.65-1.08-.65v-.16c0-.05-.07-.14-.15-.17-.09-.03-.11-.07-.11-.109v-.149s.09-.01.09-.09-.11-.16-.11-.16v-.21s.06.02.06-.05c-.01-.07-.08-.07-.08-.07v-.18s.08-.03.02-.12l-.07-.102-.07.102c-.06.09.02.12.02.12v.18s-.07 0-.08.07c0 .068.06.05.06.05v.21s-.11.08-.11.16.09.09.09.09v.149c0 .039-.02.079-.11.109-.08.03-.15.12-.15.17v.16s-.22-.02-.45.07c-.26.108-.56.41-.56.41l-.08-.41-1.28-.602v-.84s.12-.03.13-.08c.01-.05 0-.1 0-.1s.04 0 .04-.05c0-.052-.1-.091-.19-.11-.07-.021-.31-.06-.53-.09-.22-.021-.38.02-.66-.391-.28-.399-.97-1.551-1.93-2.319-.95-.78-1.63-1.21-2.5-1.55-.86-.33-2.13-.62-2.13-.62l-.08-6.17s.12-.012.12-.102c0-.08-.12-.12-.12-.12v-.947l.07-.11s.02-.24.02-.26c0-.012-.05-.051-.08-.051s-1.33-10.061-1.33-10.061l-.03-.54s.18.021.18-.21c0-.189-.18-.21-.18-.21v-.22s.09-.021.09-.142c0-.14-.14-.17-.14-.17v-.3s.11.021.11-.13-.17-.271-.17-.271v-.149s.08-.021.08-.07c0-.069-.09-.1-.09-.1v-.25s.17-.011.15-.24c-.01-.11-.05-.16-.08-.18.01.028.04.13.02.229-.02.08-.09.09-.13.08-.05.01-.109 0-.129-.08-.03-.1.01-.2.02-.229-.03.02-.08.068-.09.18-.01.229.15.24.15.24V56s-.09.03-.09.1c0 .05.09.07.09.07v.149s-.18.119-.18.271.11.13.11.13v.3s-.14.03-.14.17c0 .12.1.142.1.142v.22s-.18.021-.18.21c0 .23.17.21.17.21l-.03.54s-1.29 10.062-1.32 10.062c-.03 0-.09.038-.09.05 0 .02.02.26.02.26l.08.11v.948s-.12.04-.12.12c0 .09.12.102.12.102l-.09 6.31s-.73.21-1.6.54c-.88.34-1.54.88-2.5 1.66-.94.77-1.49 1.9-1.77 2.3-.27.41-.43.37-.65.39-.23.03-.45.07-.54.092-.08.02-.18.05-.18.108 0 .05.03.05.03.05s-.01.052 0 .092c.01.06.14.09.14.09v.12l-2.02.62v.54l-.22-.2s.07-.12.07-.2v-.59c0-.102-.07-.142-.12-.142h-.32V78.08s.08-.051.08-.13c0-.07.01-.21.01-.21s.09-.021.09-.16v-.33s.07 0 .07-.12c.01-.12.01-.26.01-.26s.09-.051.09-.21v-.54c0-.08-.05-.13-.15-.13h-.35l-.05-4.012s.07-.01.07-.068c0-.052-.07-.08-.07-.08v-.66l.03-.07s.02-.17.02-.18c0-.021-.02-.03-.04-.03-.03 0-.72-6.97-.72-6.97l-.021-.37c.021 0 .09-.01.09-.14 0-.142-.09-.142-.09-.142v-.16s.05-.01.05-.1S80 62.89 80 62.89v-.2c.02 0 .06-.01.06-.09 0-.108-.09-.188-.09-.188V62.3s.04 0 .04-.05-.04-.062-.04-.062v-.18s.08-.01.08-.16c-.01-.1-.05-.14-.05-.14s.03.09.01.17c-.01.06-.04.06-.07.06-.03 0-.06 0-.07-.06-.01-.07.01-.13.01-.16-.01.01-.04.05-.04.13 0 .15.08.16.08.16v.18s-.05.012-.05.062.04.05.04.05v.11s-.09.08-.09.188c0 .08.04.09.06.09v.2s-.08.03-.08.12.06.1.06.1v.16s-.09 0-.09.142c0 .13.06.14.08.14l-.01.37s-.7 6.97-.73 6.97c0 0-.03.01-.03.03v.18l.03.07v.66s-.05.028-.05.08c0 .06.07.068.07.068l-.05 4.012h-.36c-.09 0-.14.05-.14.13v.54c0 .159.08.21.08.21s0 .14.01.26c0 .12.07.12.07.12v.33c0 .14.101.16.101.16s.02.14.02.21c0 .079.07.13.07.13v3.858h-.32c-.06 0-.121.04-.121.142v.59c0 .08.061.2.061.2l.09.39s-.15.14-.24.3c-.07.15-.13.521-.16.65-.04.14-.31.16-.31.16v.17l.08.05v2.9s-.55.71-.65.81-.65.29-.65.29h-.75v.16l.12.05v.37h-.7c-.141 0-.57.35-.57.35h-.48v-.23s.12 0 .12-.17c0-.182-.16-.21-.16-.21v-.24s.11-.01.11-.141c0-.109-.12-.119-.12-.119v-.31s.12-.02.12-.12c0-.09-.16-.31-.16-.31v-.13s.021 0 .021-.03c0-.04-.021-.04-.021-.04v-.22s.05-.021.05-.12c0-.11-.1-.21-.1-.25-.02-.021-.05-.271-.05-.271s-.04.25-.04.271c-.01.04-.12.14-.12.25 0 .1.07.12.07.12v.22s-.021 0-.021.04c0 .03.021.03.021.03v.13s-.16.22-.16.31c0 .102.11.12.11.12v.312s-.11.01-.11.12c0 .13.11.14.11.14v.24s-.16.028-.16.21c0 .17.12.17.12.17v.38s-.04 0-.04.04.03.04.03.04 0 .06-.02.1c0 .05-.09.2-.19.3-.09.092-.06.4-.06.4l-.57.04h-1.78l-.97.36v.158h.12v1.75h-1.63v-.75l.11-.1v-.1s-.14-.04-.24-.131C68.64 91.72 68.58 91 67.84 91c-.72 0-.74.74-.8.8-.07.07-.26.1-.26.1v.092l.11.108v1.01l-.58.08v.142l.14.09v1.7l-1.75.068V89.4h.39c.02 0 .16-.97.16-.97s.07-.14.07-.24v-.68c0-.12-.05-.16-.12-.16h-.57v-4.78h.16c.02 0 .17-.979.17-.979s.07-.14.07-.23v-.691c0-.11-.06-.16-.12-.16h-.35v-4.47s.08-.062.08-.15c0-.08.02-.229.02-.229s.1-.04.1-.2V75.1s.07 0 .08-.14c.01-.141.01-.3.01-.3s.09-.08.09-.25v-.63c0-.102-.06-.15-.16-.15h-.39l-.05-4.1s.07-.012.07-.08c0-.07-.07-.092-.07-.092v-.77l.05-.09v-.19c0-.02-.03-.05-.05-.05-.01 0-.77-8.01-.77-8.01l-.02-.431c.02 0 .09 0 .09-.149 0-.16-.1-.17-.1-.17v-.181s.06-.021.06-.109c0-.11-.08-.141-.08-.141v-.229c.02 0 .07-.01.07-.11 0-.12-.11-.22-.11-.22v-.12s.05-.01.05-.06c0-.051-.05-.07-.05-.07v-.2s.09-.02.09-.18a.28.28 0 0 0-.06-.16c.01.03.03.11.02.18-.03.07-.05.07-.08.07-.02 0-.06 0-.07-.07-.02-.09.01-.188.01-.188s-.05.05-.05.17c-.01.16.09.18.09.18v.2s-.06.021-.06.07.05.06.05.06v.12s-.11.1-.11.22c0 .102.05.11.07.11v.229s-.08.029-.08.141c0 .09.06.109.06.109v.181s-.11.01-.11.17c0 .149.08.149.1.149l-.01.431s-.77 8.01-.79 8.01c-.021 0-.05.03-.05.05l.01.19.04.09v.77s-.05.021-.05.092c0 .068.06.08.06.08l-.06 4.1h-.38c-.11 0-.16.05-.16.15v.63c0 .17.1.25.1.25v.3c0 .14.09.14.09.14v.36c0 .16.09.2.09.2s.03.148.03.229c0 .09.07.15.07.15v4.47H62c-.07 0-.13.05-.13.16v.688c0 .092.07.23.07.23s.14.979.16.979h.17v4.779h-.56c-.07 0-.13.04-.13.16v.68c0 .102.07.24.07.24s.15.97.17.97h.37v7.762h-.23l.02-.012c-.02-.137-.12-.147-.12-.147l-.01-.142s.04-.02.03-.068c-.01-.062-.08-.04-.08-.04l-.01-.25-.02.25s-.05-.021-.07.04c-.01.05.04.068.04.068l-.01.142s-.11.01-.12.148c0 0 0 .012.01.012h-1.06c-.02-.021-.05-.03-.05-.03l-.021-.14s.05-.03.03-.07c-.01-.062-.07-.05-.07-.05l-.02-.25-.01.25s-.07-.012-.07.05c-.02.04.03.07.03.07l-.01.14s-.04.01-.06.03H57.8v.76h-.07l-.03-.45s.07-.04.06-.11c0-.118-.11-.14-.11-.14l-.01-.13s.04-.04.03-.07c-.01-.06-.07-.06-.07-.06l-.02-.24-.02.24s-.05 0-.07.06c-.01.03.04.07.04.07l-.02.13s-.11.021-.11.14c-.01.07.06.11.06.11l-.02.45h-.1V98s-.39-.021-1.101.319c-.06.029-.129.069-.189.101-.71-.33-1.09-.312-1.09-.312v-.068h-.1l-.03-.471s.07-.021.07-.101c-.01-.13-.12-.14-.12-.14l-.01-.142s.05-.02.04-.068c-.02-.07-.07-.04-.07-.04l-.02-.25-.03.25s-.05-.03-.07.04c-.01.05.04.068.04.068l-.01.142s-.11.01-.12.14c0 .08.07.101.07.101l-.03.471h-.1v.068s-.38-.02-1.09.312c-.12.06-.24.13-.33.21l-.32-.17c0-.141-.11-.15-.11-.15l-.01-.14s.04-.021.03-.062c-.01-.06-.07-.05-.07-.05l-.02-.25-.021.25s-.06-.01-.07.05c-.01.04.03.062.03.062l-.01.14s-.05.011-.08.05c-.33-.09-.5-.09-.5-.09v-.07h-.09l-.04-.46s.07-.03.07-.102c0-.14-.11-.14-.11-.14l-.01-.142s.04-.028.02-.068c0-.07-.07-.05-.07-.05l-.02-.25-.01.25s-.06-.021-.07.05c-.01.04.03.068.03.068l-.019.144s-.1 0-.1.14c0 .07.05.102.05.102l-.02.46h-.1v.068c-.04 0-.42.012-1.09.32-.14.07-.26.15-.38.25-.07-.05-.14-.08-.2-.11a3.565 3.565 0 0 0-.83-.29V93.4H37.07l-.04-4.229h.21c.03 0 .22-1.11.22-1.11s.09-.16.09-.27v-.771c0-.14-.08-.18-.17-.18h-.45v-5.62s.1-.07.1-.17c0-.09.03-.28.03-.28s.13-.028.13-.21v-.42s.1 0 .11-.17c.01-.149.01-.33.01-.33s.1-.08.1-.28v-.72c0-.108-.05-.16-.18-.16h-.51l-.07-5.96s.09-.01.09-.09-.09-.109-.09-.109v-.869l.06-.092.01-.229c0-.021-.03-.04-.05-.04-.04 0-1.02-9.12-1.02-9.12l-.03-.479c.02 0 .14-.012.14-.19s-.14-.18-.14-.18v-.21s.07-.021.07-.13c0-.12-.1-.15-.1-.15v-.271c.02 0 .08-.01.08-.118 0-.12-.13-.24-.13-.24v-.142s.06-.02.06-.068c0-.07-.07-.09-.07-.09v-.222s.13-.01.12-.22c-.01-.1-.05-.14-.07-.16.01.03.04.11.02.2-.02.07-.07.09-.1.09-.04 0-.09-.02-.1-.09-.02-.09 0-.17.01-.2-.02.021-.05.062-.06.16-.01.21.11.22.11.22v.22s-.07.02-.07.09c0 .05.07.068.07.068V60s-.13.12-.13.24c0 .108.06.118.08.118v.271s-.11.03-.11.15c0 .108.08.13.08.13v.21s-.141 0-.141.18.11.19.13.19l-.02.479s-.99 9.12-1.01 9.12c-.03 0-.07.02-.07.04s.02.229.02.229l.05.092v.869s-.09.029-.09.109.1.09.1.09l-.08 5.96h-.5c-.13 0-.2.051-.2.16v.72c0 .2.11.28.11.28s.01.181.01.33c.01.17.11.17.11.17v.42c0 .182.13.21.13.21s.03.19.03.28c0 .1.1.17.1.17v5.62h-.45c-.081 0-.17.04-.17.18v.771c0 .108.1.27.1.27s.19 1.11.22 1.11h.21l-.05 4.229h-1.15V96.2h-4.88v14.438l-2.56.55-.25-.81-3.72.99.05.199c.03.149.07.301.1.449l-4.87 1.051h-.31v1.199c-.18-.35-.36-.67-.54-1.02l-.1-.19-.07-.148c-.3-.591-.61-1.2-.91-1.812-.23-.47-.43-.89-.62-1.24a.66.66 0 0 0 .2.012h.17l.01-.07.06.14.11.021c.19.05.4.09.61.13.56.11 1.17.24 1.91.42l.33.08-.07-.33c-.11-.479-.23-.89-.37-1.26l-.03-.102-.23-.06.18-.07-.09-.21c-.24-.58-.51-1.029-.84-1.398l.53-.11-.041-.01c.12-.05.21-.09.291-.142l.14-.079-.02-.079.13.1.1-.03c.2-.06.39-.12.61-.2.53-.17 1.13-.358 1.86-.568l.33-.09-.24-.25c-.33-.36-.63-.66-.93-.92l-.08-.07-.23.06.13-.148-.18-.142c-.55-.42-1.07-.698-1.58-.858l-.14-.04-.12.148-.08-.188c.32-.44.68-.95 1.13-1.54l.21-.271-.331-.06c-.479-.09-.899-.16-1.3-.18l-.11-.012-.15.19.02-.2h-.228c-.69-.02-1.271.062-1.79.25l-.13.05-.01.19-.17-.11-.11.05c-.39.2-.73.48-.99.83l-.08.091c-.53.601-1.08 1.229-1.27 2.261-1.11-.511-2.15-.472-3.09-.34-.42.04-.85.17-1.23.38l-.1.06-.01.21-.16-.1-.12.09c-.42.32-.81.77-1.18 1.36l-.12.18.18.1-.24.03-.05.09c-.19.352-.37.74-.561 1.19l-.13.318.35-.028c.6-.062 1.12-.08 1.59-.102-.01.03-.03.062-.04.09l-.05.11.12.17-.19.021-.04.14c-.15.51-.2 1.1-.14 1.79l.02.229.2-.029-.18.16.02.108c.05.4.13.82.25 1.28l.1.33.25-.22c.56-.5 1.05-.9 1.48-1.25.18-.142.34-.28.5-.4l.08-.07-.01-.159.05.061.16-.08c.09-.05.19-.11.3-.2l.15-.148c.02-.03.05-.052.08-.08l.1-.08c.12.46.36.95.72 1.47l.12.18.16-.108-.07.22.06.09c.24.32.52.642.86.99l.24.25.11-.33c.25-.71.48-1.3.68-1.82.05-.108.09-.22.13-.33.12.472.24.882.31 1.142l1 2 1.07 2.18 1.1 2.21L0 119.01v11.47h504v-12.81l-14.94-1.45zm-4.729-21.83l.119.26c-.09.142-.16.28-.24.421l.121-.681zM48.91 104.96v-.34c.08.09.13.21.15.34h-.15zm5.93 0v-.602c.07-.02.14-.05.23-.05.48 0 .72.312.78.65l-1.01.002zm27.54-14.25h-.65v-1.17c0-.15.09-.34.32-.34.21 0 .33.158.33.34v1.17zm1.36 0h-.66v-1.17c0-.15.09-.34.32-.34s.34.158.34.34v1.17zm1.35 0h-.64v-1.17c0-.15.08-.34.31-.34.22 0 .33.158.33.34v1.17zm1.14 0h-.43v-1.17c0-.15.08-.34.31-.34.05 0 .09.01.12.02v1.49zm19.11.05h-.64v-1.18c0-.142.08-.33.31-.33.229 0 .33.16.33.33v1.18zm1.37 0h-.65v-1.18c0-.142.09-.33.3-.33.24 0 .35.16.35.33v1.18zm1.35 0h-.65v-1.18c0-.142.09-.33.32-.33s.33.16.33.33v1.18zm46.49-1.08h-1.99v-1.99h1.99v1.99zm0-5.8h-1.99v-1.99h1.99v1.99zm0-5.79h-1.99V76.1h1.99v1.99zm0-5.8h-1.99V70.3h1.99v1.99zm0-5.8h-1.99V64.5h1.99v1.99zm0-5.801h-1.99V58.7h1.99v1.989zm0-5.799h-1.99v-1.98h1.99v1.98zm0-5.81h-1.99V47.1h1.99v1.98zm0-5.79h-1.99V41.3h1.99v1.99zm4.97 46.39h-1.99v-1.99h1.99v1.99zm0-5.8h-1.99v-1.99h1.99v1.99zm0-5.79h-1.99V76.1h1.99v1.99zm0-5.8h-1.99V70.3h1.99v1.99zm0-5.8h-1.99V64.5h1.99v1.99zm0-5.801h-1.99V58.7h1.99v1.989zm0-5.799h-1.99v-1.98h1.99v1.98zm0-5.81h-1.99V47.1h1.99v1.98zm0-5.79h-1.99V41.3h1.99v1.99zm2.45 46.39h-.14v-1.99h.14v1.99zm0-5.8h-.14v-1.99h.14v1.99zm1.85-6.22h-1.85v.43h-.14V76.1h1.99v1.56zm0-5.37h-1.99V70.3h1.99v1.99zm0-5.8h-1.99V64.5h1.99v1.99zm0-5.801h-1.99V58.7h1.99v1.989zm0-5.799h-1.99v-1.98h1.99v1.98zm0-5.81h-1.99V47.1h1.99v1.98zm0-5.79h-1.99V41.3h1.99v1.99zm283.761 61.38c.64 0 1.16.49 1.16 1.1 0 .602-.521 1.08-1.16 1.08-.641 0-1.16-.479-1.16-1.08-.001-.61.519-1.1 1.16-1.1zm-48.201 2.62h-2.61v-2.58c1.36-2.67 3.48-4.91 5.851-4.91 3.44 0 6.311 4.65 7.141 8.53l-10.382-1.04zm12.41-.44c-.649 0-1.159-.479-1.159-1.08 0-.608.51-1.1 1.159-1.1.641 0 1.16.49 1.16 1.1 0 .6-.52 1.08-1.16 1.08zm1.56 1.85c.71-3.972 3.67-8.9 7.2-8.9 4.011 0 7.261 6.29 7.37 10.37l-14.57-1.47zm16.33-1.85c-.641 0-1.16-.479-1.16-1.08 0-.608.521-1.1 1.16-1.1.65 0 1.16.49 1.16 1.1 0 .6-.509 1.08-1.16 1.08zm34.75 6.12h-8.739l-24.609-2.479c0-.03-.01-.062-.01-.092 0-4.079 3.318-10.6 7.379-10.6 4.08 0 7.381 6.521 7.381 10.6 0 .49-.041.96-.131 1.4h3.59c-.09-.44-.14-.91-.14-1.4 0-4.079 3.3-10.6 7.38-10.6 4.069 0 7.37 6.521 7.37 10.6 0 .49-.04.96-.141 1.4h.67v1.171zm22.55-4.06h-.011v-2.091l.102-.079-.021.079.141.079c.069.052.159.092.279.142l-.029.01.52.11c-.319.37-.6.818-.84 1.398l-.09.21.189.07-.229.06-.011.012zm1.33 4.15v.011h-1.238v-2.619a80.15 80.15 0 0 1 1.68-.36c.22-.04.42-.08.619-.13l.101-.021.069-.14.011.07h.17c.061.01.13 0 .2-.012-.19.352-.399.771-.631 1.24-.289.61-.601 1.221-.899 1.812l-.082.149z"/><path d="M19.056 102.645l.059.206c.351 1.217.692 2.45 1.015 3.661l.054.204 3.497-.93-1.234-4.043-3.391.902zm2.187 8.237l.052.21 3.702-.985-1.231-4.044-3.507.933.053.203c.316 1.202.628 2.444.931 3.683zM30.76 89.99c-.44-.79-.85-1.45-1.28-2.052l-.06-.08h-.93l.621-.438-.14-.17c-.8-.99-1.6-1.71-2.45-2.21l-.12-.07-.42.34-.09-.6-.12-.04c-.14-.062-.3-.12-.46-.17.72-.63 1.54-1.33 2.54-2.12l.26-.21-.3-.141a19.13 19.13 0 0 0-2.25-.891l-.11-.03-.74.562.24-.72-.22-.062c-1.23-.319-2.3-.42-3.28-.319l-.14.011-.14.54-.43-.432-.22.052a5.19 5.19 0 0 0-1.98 1.01c-1.47 1.05-2.95 2.33-3.77 4.54-1.59-1.23-3.18-1.392-4.71-1.54l-.23-.021a5.348 5.348 0 0 0-2.21.12l-.22.05-.161.591-.38-.39-.13.06c-.91.39-1.78 1.01-2.69 1.909l-.16.15.56.5-.92-.11-.08.08c-.49.54-.98 1.15-1.5 1.881l-.2.279.34.05c1.4.222 2.55.44 3.58.65l.21.04-.05.05-.07.09.22.57-.54-.09-.07.13c-.49.85-.82 1.87-1.02 3.13l-.03.22.75.07-.82.46-.01.11c-.07.72-.1 1.51-.09 2.41v.34l.31-.16a73.23 73.23 0 0 1 3.25-1.61c.38-.18.74-.34 1.06-.51l.1-.04.14-.78.24.53.17-.04c.19-.04.38-.12.6-.229l.32-.182-.02.03.68-.43v.01c-.01.99.21 2.04.65 3.229l.08.21.69-.31-.48.8.04.11c.29.66.65 1.359 1.11 2.14l.17.29.18-.28c.77-1.188 1.45-2.148 2.05-3.01l.67-.96.06-.09-.26-.75.47.35.13-.108c.13-.13.27-.29.41-.49l.02-.04c.23.79.51 1.71.84 2.8.37 1.16.72 2.34 1.1 3.61l.06.2 3.38-.9-1.16-3.82c-.34-.64-.81-1.528-1.33-2.448l.04.02c.33.16.68.32 1.05.49.95.438 2.02.938 3.28 1.6l.311.16v-.34c.01-.9-.03-1.69-.11-2.41l-.01-.11-.81-.46.75-.068-.04-.222c-.21-1.26-.54-2.278-1.04-3.13l.79.03-.03-.03.37.012c.26-.012.47-.04.65-.102l.15-.05-.05-.58.51.61.11-.012c.36-.028.75-.06 1.17-.09 1.03-.08 2.21-.17 3.62-.21l.35-.02-.171-.299zm-11.2 4.659l.12-.26.12.681-.24-.421z"/></svg>