<svg xmlns="http://www.w3.org/2000/svg" width="647.334" height="264.41" viewBox="0 0 647.334 264.41"><path fill="#90CAF9" d="M0 152.885h53.802V264.41H0z"/><path fill="#90CAF9" d="M7.758 127.336h74.905V264.41H7.758z"/><path fill="#90CAF9" d="M17.612 120.026h32.691V264.41H17.612zM56.429 110.293h64.426V264.41H56.429z"/><path fill="#90CAF9" d="M115.896 85.511h36.731V264.41h-36.731z"/><path fill="#90CAF9" d="M144.756 117.225h45.477V264.41h-45.477z"/><path fill="#90CAF9" d="M159.624 55.828h44.602V264.41h-44.602z"/><path fill="#90CAF9" d="M201.069 97.205h73.122V264.41h-73.122z"/><path fill="#90CAF9" d="M217.344 78.616h28.86V264.41h-28.86z"/><path fill="#90CAF9" d="M226.527 91.026h76.523V264.41h-76.523z"/><path fill="#90CAF9" d="M254.075 69.617h67.341V264.41h-67.341z"/><path fill="#90CAF9" d="M309.173 44.143h55.973V264.41h-55.973z"/><path fill="#90CAF9" d="M363.909 112.723h52.833V264.41h-52.833z"/><path fill="#90CAF9" d="M379.137 78.58h48.102v185.83h-48.102z"/><path fill="#90CAF9" d="M410.414 91.16h36.064v173.25h-36.064z"/><path fill="#90CAF9" d="M438.605 103.436h29.736V264.41h-29.736z"/><path fill="#90CAF9" d="M461.346 97.205H504.2V264.41h-42.854z"/><path fill="#90CAF9" d="M489.77 65.437h38.916V264.41H489.77z"/><path fill="#90CAF9" d="M520.815 91.123h40.229V264.41h-40.229z"/><path fill="#90CAF9" d="M556.673 78.616h21.863V264.41h-21.863z"/><path fill="#90CAF9" d="M547.052 91.123h51.308V264.41h-51.308z"/><path fill="#90CAF9" d="M594.276 140.401h35.462V264.41h-35.462z"/><path fill="#90CAF9" d="M614.683 112.723h32.651V264.41h-32.651z"/></svg>