<svg xmlns="http://www.w3.org/2000/svg" viewBox="0 0 354.199 120.239"><path d="M353.701 103.104v-4.682l-.283-.289V95.76h-.152v-1.928h.152v-.209l-1.115-1.131h-.707v-.272l-.149-.267h-.636v-.508h.334v-.43l-1.631-.79V89h.075v-.164l-.638-.531v-.238h.074v-.404h-.18v-.229l-.24-.061s.193-.703-.301-1.228c-.5-.524-.925-.226-.925-.226l-.192.545-.16.268s-.711.021-1.117-1.007c-.402-1.033-.467-2.021-.467-2.021l.133-.222-.016-.196h.063v-.324h.063v-.118l.146-.16v-.144h-.568s-.475-1.023-1.951-1.023c-1.475 0-1.948 1.023-1.948 1.023h-.568v.144l.146.16v.118h.062v.324h.066l-.016.196.133.222s-.068.987-.472 2.021c-.401 1.028-1.112 1.007-1.112 1.007l-.16-.268-.199-.545s-.419-.299-.92.226c-.492.524-.299 1.228-.299 1.228l-.241.061v.229h-.179v.404h.072v.238l-.637.531V89h.075v1.586c-.002-.196-.063-.969-.802-.928-.521.027-.575.424-.575.424l-.191.088h-.125l-.042.072h-.115l-.082-.242-.123.026-.266-.272-.186.009-.082.142s-.174-.021-.398-.346c-.23-.333-.48-1.005-.48-1.005h.055l-.01-.151-.084-.127.084-.206-.189-.219.033-.322-.201-.78.049-.09-.089-.199-.052-.764.072-.117-.072-.221v-.227l.136-.297-1.024-.06s-.418-1.308-2.139-1.308c-1.717 0-2.137 1.308-2.137 1.308l-1.021.06.139.297v.227l-.079.221.079.117-.057.764-.089.199.048.09-.199.78.033.322-.192.219.086.206-.086.127-.009.151h.058s-.252.672-.481 1.005c-.226.324-.396.346-.396.346l-.081-.142-.188-.009-.269.272-.128-.026-.082.242h-.114l-.039-.072h-.127l-.188-.088s-.061-.396-.582-.424c-.837-.043-.798.969-.798.969l-.146.16V91l-.103-.028v-.102h-.131v-.375s.162-.082.067-.244c-.092-.168-.401-.112-.401-.112v-.384l-.154-.299s.425-.379.081-1.06c-.339-.683-1.46-.569-1.46-.569v.271l-.373.145s-.566-.056-.889-1.052c-.314-1.002-.42-2.401-.42-2.401l-.238-1.672s.334-.008.344-.359c.008-.354-.518-.393-.518-.393v-.361h.143v-.152l-.082-.092v-.795h.281v-.576h.176v-.281l-3.672-1.688-3.668 1.688v.281h.175v.576h.278v.795l-.084.092v.152h.145v.361s-.523.039-.514.393c.008.353.34.359.34.359l-.238 1.672s-.102 1.399-.42 2.401c-.318.996-.889 1.052-.889 1.052l-.37-.145v-.271s-1.124-.111-1.463.569.081 1.06.081 1.06l-.154.299v.384s-.311-.056-.402.112c-.094.162.074.244.074.244v.375h-.137v.103l-.383.123-.467.437a.655.655 0 0 0-.14-.51c-.276-.359-.577-.299-.577-.299v-.148s.219-.133.188-.283c-.026-.149-.355-.418-.355-.418l-.279.207s-.209.012-.293-.168c-.096-.181-.102-.32-.102-.32s.424-.133.346-.416c-.074-.28-.451-.557-.451-.557l.029-.506h-.093v-.855l.169-.125v-.381h-.113v-.545l-.056-.051v-.115s-.208.045-.36-.104c-.154-.139-.256-.316-.256-.316h-.197s.043-.248-.184-.465c-.23-.216-.602-.246-.602-.246v-.146s.188-.06.188-.257c0-.188-.146-.33-.288-.33-.145 0-.277.061-.277.176v.207s-.226-.126-.289-.262c-.061-.141-.08-.373-.08-.373l.184-.145v-.873h-.254v.19l-.3.058s-.222-.068-.212-.248c.008-.179.268-.082.268-.396s-.521-.359-.521-.359v-.355h-.096v-.68h.23v-.222h.154v-.19h.119v-.233h-1.433s.138-1.253-1.33-1.718v-.233h-.146l-.112-.104v-.145s.508-.152.521-.562c.011-.414-.521-.53-.521-.53v-.078s.149 0 .112-.087c-.032-.09-.264-.355-.264-.355s-.227.268-.261.355c-.04.087.112.087.112.087v.078s-.531.116-.516.53c.01.41.516.562.516.562v.145l-.112.104h-.144v.233c-1.465.465-1.327 1.718-1.327 1.718h-1.438v.233h.116v.19h.16v.222h.226v.68h-.09v.355s-.521.045-.521.359.262.218.271.396c.009.18-.214.248-.214.248l-.3-.058v-.19h-.259v.873l.188.145s-.018.232-.08.373c-.064.136-.289.262-.289.262v-.207c0-.115-.131-.176-.275-.176-.143 0-.288.142-.288.33 0 .197.188.257.188.257v.146s-.378.03-.603.246c-.228.217-.183.465-.183.465h-.199s-.102.178-.256.316c-.157.148-.358.104-.358.104v.115l-.056.051v.545h-.114v.381l.17.125v.854h-.093l.031.506s-.377.275-.453.557c-.076.283.345.416.345.416s-.009.141-.099.32c-.086.18-.291.168-.291.168l-.287-.207s-.326.269-.354.418c-.031.15.186.283.186.283v.148s-.297-.061-.572.299c-.398.516.131 1.021.131 1.021h-.708v-1.391h-.121v-.441h.14v-.467h-.562v.312h-.109v1.39h-4.389l-.064.532h-2.379l-1.918-3.789v-6.74h-.498v6.703l-1.438 2.992h-4.225v-1.416h-2.289v-3.244h-.621v-2.412h-1.291v1.872l-.582.582v1.789h-5.102v-1.582h.895v-.478h.336v-.748h-1.23V82.57h.547v-.685h-.547v-.666h-.635V65.525l.969-.876v-.811h-.627l-.467-.812v-1.375l.467-.438v-.807h-.59v-1.719l.28-.254v-1.12l-.599-1.592-.715 1.529v1.125l.375.28v1.75h-1.216v-2.562h.437v-.656h-.907V55.69h.313v-.593s-.562-.187-1.154-.627c-.594-.436-.438-2.024-.438-2.024l.188-.254v-1.058h-.373s.029-.938-.188-1.78c-.218-.845-1.592-1.437-1.592-1.437v-.908l-.688-.28v-1.337s1.312-.816 1.404-1.687c.096-.876-1.344-1.812-1.891-2.626-.555-.811-.709-2.525-.709-2.525v-.374l.229-.25v-.795l-.436-.102-.086-.333s.416-.354.398-.685c-.023-.336-.521-.462-.521-.462v-1.954h1.125v-.562h-1.146v-1.103l-.271-.417-.271.417v1.103h-1.145v.562h1.127v1.954s-.504.126-.523.462c-.021.33.394.685.394.685l-.082.333-.435.102v.795l.226.25v.374s-.155 1.715-.705 2.525c-.552.813-1.988 1.75-1.896 2.626.094.87 1.405 1.687 1.405 1.687v1.337l-.685.28v.908s-1.374.592-1.592 1.437c-.219.842-.188 1.78-.188 1.78h-.378v1.058l.188.254s.156 1.589-.436 2.024c-.595.44-1.156.627-1.156.627v.593h.312v1.497h-.904v.656h.44v2.562h-1.221v-1.75l.375-.28V57.25l-.72-1.529-.589 1.592v1.12l.279.254v1.719h-.598v.807l.473.438v1.375l-.473.812h-.621v.811l.967.876v10.168l-2.84-4.338v-1.396h-.312v-.81l-1.244-1.271v-1.603h-.648v1.579l-1.311 1.346v.652h-1.562v-3.493l.969-.876v-.812h-.621l-.473-.811v-1.373l.473-.438v-.814h-.596v-1.713l.277-.252v-1.12l-.591-1.592-.716 1.528v1.123l.373.283v1.744h-1.221v-2.557h.44v-.656h-.907v-1.497h.312v-.596s-.562-.184-1.156-.624c-.594-.436-.436-2.027-.436-2.027l.19-.249v-1.064h-.377s.026-.935-.188-1.778c-.219-.842-1.593-1.435-1.593-1.435v-.904l-.687-.281v-1.346s1.312-.808 1.406-1.683c.092-.873-1.342-1.812-1.896-2.623-.552-.808-.712-2.53-.712-2.53v-.372l.23-.25v-.792l-.436-.104-.083-.33s.416-.354.394-.69c-.02-.33-.52-.453-.52-.453v-1.96h1.125v-.561h-1.146v-1.102l-.268-.417-.273.417v1.102h-1.146v.561h1.125v1.96s-.498.123-.521.453c-.019.336.397.69.397.69l-.086.33-.437.104v.792l.23.25v.372s-.158 1.723-.711 2.53c-.547.811-1.984 1.75-1.891 2.623.092.875 1.406 1.683 1.406 1.683v1.346l-.689.281v.904s-1.375.593-1.592 1.435c-.222.844-.185 1.778-.185 1.778h-.379v1.064l.188.249s.153 1.592-.437 2.027a4.553 4.553 0 0 1-1.155.624v.596h.313v1.497h-.908v.656h.437v2.557h-1.215v-1.744l.375-.283v-1.123l-.722-1.528-.592 1.592v1.122l.278.252v1.713h-.59v.814l.467.438v1.373l-.467.811h-.627v.812l.969.876v2.062l-2.315.002v-3.416h-.655V50.48h.534v-.621l.491-.208v-1.46h-1.271v-2.746h.287v-.663h.454v-.711h-.825c-.121-1.08-1.394-4.075-1.394-4.075v-3.832h-2.258c-1.765-3.204-5.183-5.234-5.183-5.234v-1.778l-.373-.408v-.966l-1.078-.685v-4.03l.496-.344.06-.716h.676v-.627l-2.026-1.027-1.108-1.921v-.419l-.804-.359v-.41l.418-.372.322-.515-.267-.689-.41-.344v-3.325l.195-.309h1.341v-.483h-1.366l-.17-.472V9.609l-.409-.373-.414.373v1.122l-.168.472h-1.369v.483h1.34l.197.309v3.325l-.412.344-.265.689.322.515.416.372v.409l-.798.359v.419l-1.108 1.921-2.032 1.027v.627h.678l.058.716.495.344v4.03l-1.077.685v.966l-.372.408v1.778s-3.415 2.03-5.184 5.234h-2.258v3.832s-1.27 2.995-1.394 4.075h-.821v.711h.452v.663h.285v2.746h-1.271v1.46l.49.208v.621h.532v14.527h-.653v3.477h-.447v.327h-3.354v-.409l.575-.574v-.936l-1.089-.908-.017-.436.467-.016v-.529h-.391V63.86h-.705v1.171h-.56v.438l.56.078v.529l-1.279.971.031.84.721.623v.628l-2.625 5.888-.744-.939v-.424l-.362-.18v-3.469h-.28v2.066h-2.227v-1.266h-.178v1.266h-3.717v-1.867h-.222v1.945l-2.226.66v-1.544h-.22v2.989l-.273.24v.414l-3.098 4.887-.244-.443v-.541l-.157-.179v-1.85h-.204v.885h-1.584v-.7h-.356v.799H167.8v-.92h-.209v2.099l-.132.129v.42l-2.444 6.162v.543h-.115v-.358h-1.388v.358h-.983v-.358h-1.382v.358h-.985v-.358h-1.383v.358h-.986v-.358h-1.383v.358h-.348v-.963h.498v-.716h-.417s-.366-1.813-1.083-2.468c-.721-.656-1.279-.969-1.279-.969l-.344-1.061v-.627l.295-.09v-.624l-.45-.624v-4.228h-.438v4.228l-.454.624v.627l.299.09v.627l-.346 1.062s-.562.312-1.277.968c-.721.652-1.086 2.469-1.086 2.469h-.414v.715h.498v.604h-.758v.358h-.98v-.358h-1.388v.358h-.985v-.358h-1.383v.358h-.506v-6.904h.201V77.8l-.469-.42v-3.31h.314v-6.667h-.178v2.612h-1.928l-.255-1.005h.552l-.336-.7v-.826h-.137v.826h-.297l-.747-2.653v-1.201h-.315l-1.51-5.117v-.304l-.32-.238v-.742h.594v-.199l-.53-.725v-.54h-.16v.338h-.37l-1.162-4.954v-.523l-.256-.422v-3.771l-.137-.239v-3.191l-.178-.319-.174.319v3.191l-.142.239v3.771l-.252.422v.523l-1.161 4.954h-.375v-.338h-.158v.54l-.529.725v.199h.588v.742l-.312.238v.304l-1.514 5.117h-.316v1.201l-.748 2.653h-.296v-.826h-.134v.826l-.336.7h.554l-.258 1.005h-1.927v-2.612h-.176v6.667h.312v3.31l-.472.42v.947h-9.848l-.212-.287v-1.013l-.216-.393v-1.675l.063-.19v-.249l.152-.152v-.189l-.134-.189.078-.316-.062-.137.33-.901-.073-.253-.634.824-.147-.168-.153.168-.631-.824-.079.253.333.901-.061.137.077.316-.129.189v.189l.146.152v.249l.065.19v1.675l-.212.394v1.012l-.221.287h-10.7v-.97h.224l.383-.36v-.599l-.212-.325h-.761l-.344-.941V72.18l.115-.461v-.279h-.229v-.546l.132-.317v-1.146h-.362v.784h-.191l-.663-1.828v-1.762h-.191v1.762h-.648l-.895-3.149h.627l-.534-1.183v-.846h-.189v.846h-.265l-.663-2.575.327-.692v-.404h-.529V57.78h.529v-.391l-1.015-2.242v-1.672h-.183v1.593h-.916l-.761-3.473v-2.591l-.124-.196v-2.287l-.144-.12V43.77l-.118-.168-.112.168v2.63l-.145.12v2.287l-.128.196v2.591l-.756 3.473h-.915v-1.593h-.187v1.672l-1.015 2.242v.391h.53v2.604h-.53v.405l.331.691-.662 2.575H94.9v-.845h-.186v.846l-.538 1.183h.629l-.894 3.149h-.646v-1.762h-.191v1.762l-.666 1.828h-.194v-.784h-.359v1.146l.131.317v.546h-.228v.28l.112.46v3.371l-.343.941h-.757l-.209.325v.599l.38.36h.246v1.347l.149.322v5.656l-.283.202v.905h-.225v-.358h-1.385v.359h-.784v-.359h-1.388v.359h-.781v-.359h-1.382v.359h-.782v-.359h-1.387v.359h-.781v-.359h-1.385v.359h-.784v-.359h-1.383v.359h-.784v-.359h-1.385v.359h-.784v-.359h-1.382v.359h-.781v-.359h-1.387v.359h-.781v-.359h-1.383v.359h-.191v-.545l-2.449-6.162v-.42l-.129-.127v-2.1h-.209v.92h-1.246v-.799h-.362v.699h-1.587v-.883h-.196v1.849l-.165.179v.542l-.236.443-3.104-4.886v-.414l-.268-.241v-2.989h-.223v1.544l-2.228-.661v-1.945h-.223v1.867h-3.708v-1.265h-.181v1.265h-2.232v-2.065h-.277v3.469l-.359.179v.426l-4.933 6.242V67.894h.288v-1.517h-1.309l-1.775-1.438v-8.73l.86-.538v-.416h-.782l-1.701-1.857h-.394v-.747l-.288-.476v-2.176h-.467v2.176l-.239.476-.587-1.062v-8.913l.472-.218v-.643l1.021-.991v-.695l-.336-.257v-2.09l.097-.236v-.407l-.194-.183v-2.66h-.393v2.111s-.157-.458-.608-.811c-.451-.346-1.394-.312-1.394-.312v-.514l.276-.347v-.603h-1.021v-.644h-.432v-8.601l.148-.236V24l-.148-.142v-.325l.589-.241v-.327l.392-.129v-.37l-.824-.68v-2.732h-.391v2.111s-.1-.346-.568-1.229c-.471-.882-1.512-1.355-1.512-1.355v-.163l-.43-.312v-.736h.178v-.365s.918-.899 1.141-1.707c.224-.805-.458-1.594-1.045-2.145-.591-.549-.706-1.414-.706-1.414v-2.09s.606 0 .666-.876c.058-.884-.929-1.046-.929-1.046V5.256h2.014v-.291h-2.09V.464L32.773 0l-.233.464v4.501h-2.091v.291h2.012v2.471s-.988.162-.928 1.046c.058.876.668.876.668.876v2.09s-.12.865-.707 1.414c-.591.551-1.27 1.34-1.045 2.145.221.808 1.142 1.707 1.142 1.707v.365h.178v.736l-.433.312v.163s-1.038.474-1.51 1.355c-.47.884-.569 1.229-.569 1.229v-2.111h-.394v2.732l-.823.68v.37l.393.129v.327l.589.241v.325l-.145.142v.339l.145.236v8.601h-.431v.644h-1.022v.603l.277.347v.514s-.944-.034-1.39.312c-.456.353-.614.811-.614.811v-2.111h-.389v2.66l-.199.183v.407l.098.236v2.09l-.33.257v.695l1.018.991v.643l.475.218v8.913l-.588 1.062-.238-.476v-2.176h-.472v2.176l-.286.476v.747h-.394l-1.699 1.857h-.786v.416l.865.538v8.73l-1.775 1.438h-1.314v1.517h.289v21.354h-2.573v-1.381l-.241-.167v-1.885l.241-.439v-1.051l-.685-.83.171-.416v-1.394h-.304V79.97l.206-.315V79.2l-1.282-.709v-.207l.367-.156s.428-.674.417-1.025c-.016-.355-.892-.857-.892-.857V75.19l.218-.279v-.341l-.335-.54v-.824l.117-.164v-.23l-.162-.17v-1.088h.467v-.189h-.478v-1.018l-.132-.221-.125.221v1.018h-.478v.189h.467v1.088l-.163.17v.23l.115.164v.824l-.333.54v.339l.218.28v1.056s-.875.5-.892.856c-.013.353.418 1.024.418 1.024l.364.158v.207l-1.28.707v.456l.204.315v1.715h-.307v1.393l.171.418-.68.828v1.051l.242.44v1.884l-.242.168v1.383h-.815l-.475 3.025-.425.312H9.279s-.02.291 0 .586c.02.291-.404.644-.404.644v.86l.344.018v1.49l-.538.338-.053.37h-1.12s-.271.411-.296.731c-.022.313-.781.756-.781.756H4.157v.562H2.835l-1.759.54v.39h.194v1.443H.394v2.768l-.394.56v15.6h354.199v-16.717l-.498-.42z"/></svg>