<svg xmlns="http://www.w3.org/2000/svg" width="354.199" height="120.239" viewBox="0 0 354.199 120.239"><path fill="#E3F2FD" d="M353.701 103.104v-4.682l-.283-.288v-2.373h-.152v-1.928h.152v-.21l-1.115-1.13h-.707v-.273l-.15-.267h-.635v-.507h.334v-.43l-1.632-.79V89h.076v-.163l-.638-.532v-.238h.074v-.404h-.179v-.229l-.241-.06s.194-.703-.301-1.228c-.499-.524-.924-.226-.924-.226l-.193.545-.16.268s-.711.021-1.117-1.007c-.402-1.033-.467-2.021-.467-2.021l.133-.221-.016-.196h.065v-.325h.063v-.118l.146-.16v-.144h-.568s-.475-1.023-1.951-1.023c-1.475 0-1.949 1.023-1.949 1.023h-.568v.144l.146.16v.118h.062v.325h.066l-.016.196.133.221s-.068.988-.471 2.021c-.402 1.028-1.113 1.007-1.113 1.007l-.16-.268-.199-.545s-.419-.299-.92.226c-.492.524-.299 1.228-.299 1.228l-.241.06v.229h-.179v.404h.073v.238l-.637.532V89h.075v1.586c-.002-.196-.064-.968-.802-.928-.52.028-.575.425-.575.425l-.191.087h-.125l-.042.072h-.116l-.083-.241-.124.026-.265-.272-.186.008-.082.142s-.173-.021-.398-.346c-.231-.333-.481-1.005-.481-1.005h.055l-.009-.151-.084-.127.084-.206-.19-.219.033-.322-.201-.781.049-.089-.089-.199-.052-.764.072-.118-.072-.22v-.226l.136-.297-1.025-.06s-.417-1.307-2.138-1.307c-1.717 0-2.137 1.307-2.137 1.307l-1.021.06.137.297v.226l-.079.22.079.118-.056.764-.089.199.048.089-.199.781.033.322-.193.219.086.206-.086.127-.008.151h.057s-.252.672-.482 1.005c-.225.324-.396.346-.396.346l-.081-.142-.189-.008-.268.272-.125-.026-.082.241h-.115l-.039-.072h-.126l-.188-.087s-.061-.396-.582-.425c-.837-.042-.798.97-.798.97l-.146.16v.213l-.103-.029v-.103h-.131v-.375s.162-.081.068-.244c-.092-.167-.402-.112-.402-.112v-.383l-.154-.299s.425-.38.081-1.06c-.339-.682-1.46-.569-1.46-.569v.271l-.373.145s-.566-.056-.889-1.052c-.314-1.002-.42-2.402-.42-2.402l-.238-1.671s.334-.008.344-.359c.008-.354-.517-.394-.517-.394v-.361h.142v-.152l-.082-.091v-.795h.281v-.577h.176v-.281l-3.672-1.688-3.668 1.688v.281h.175v.577h.278v.795l-.084.091v.152h.145v.361s-.524.04-.514.394c.008.352.34.359.34.359l-.238 1.671s-.102 1.4-.42 2.402c-.319.996-.889 1.052-.889 1.052l-.37-.145v-.271s-1.124-.112-1.463.569c-.339.68.081 1.06.081 1.06l-.154.299v.383s-.31-.055-.402.112c-.094.163.074.244.074.244v.375h-.137v.103l-.383.123-.467.436a.65.65 0 0 0-.139-.509c-.277-.359-.577-.299-.577-.299v-.149s.218-.132.187-.283c-.026-.149-.354-.417-.354-.417l-.28.207s-.21.011-.294-.168a.84.84 0 0 1-.101-.32s.424-.134.345-.416c-.073-.281-.451-.557-.451-.557l.031-.506H306v-.853l.169-.126v-.38h-.114v-.545l-.055-.051v-.115s-.208.045-.36-.104c-.154-.139-.256-.317-.256-.317h-.197s.042-.247-.184-.464c-.23-.216-.601-.247-.601-.247v-.145s.188-.06.188-.257c0-.188-.145-.33-.288-.33-.145 0-.278.061-.278.176v.207s-.225-.126-.288-.262a1.49 1.49 0 0 1-.081-.373l.184-.145v-.873h-.254v.191l-.3.058s-.221-.068-.212-.249c.008-.178.268-.081.268-.396s-.522-.359-.522-.359v-.356h-.095v-.68h.23v-.221h.155v-.191h.118v-.233h-1.432s.137-1.253-1.33-1.718v-.233h-.145l-.112-.104v-.145s.507-.152.521-.563c.01-.414-.521-.53-.521-.53v-.078s.149 0 .112-.087c-.033-.089-.264-.356-.264-.356s-.227.268-.261.356c-.039.087.112.087.112.087v.078s-.531.116-.516.53c.01.411.516.563.516.563v.145l-.112.104h-.144v.233c-1.464.465-1.327 1.718-1.327 1.718h-1.438v.233h.116v.191h.16v.221h.225v.68h-.089v.356s-.522.044-.522.359c0 .314.262.218.271.396.009.181-.214.249-.214.249l-.3-.058v-.191h-.258v.873l.187.145s-.018.233-.08.373c-.064.136-.289.262-.289.262v-.207c0-.115-.131-.176-.275-.176s-.289.142-.289.33c0 .197.188.257.188.257v.145s-.376.031-.602.247c-.227.217-.182.464-.182.464h-.199s-.102.179-.256.317c-.158.149-.359.104-.359.104v.115l-.056.051v.545h-.114v.38l.17.126v.853h-.092l.031.506s-.377.275-.454.557c-.076.282.345.416.345.416s-.009.14-.098.32c-.087.179-.291.168-.291.168l-.286-.207s-.328.268-.354.417c-.031.151.186.283.186.283v.149s-.298-.061-.573.299c-.398.515.131 1.021.131 1.021h-.708v-1.39h-.121v-.441h.14v-.467h-.563v.312h-.11v1.39h-4.388l-.065.532h-2.379l-1.917-3.789v-6.74h-.498v6.703l-1.438 2.992h-4.225v-1.416h-2.289v-3.244h-.621v-2.412h-1.291v1.872l-.582.582v1.789h-5.102v-1.582h.895v-.477h.336v-.748h-1.23v-2.937h.546v-.685h-.546v-.666h-.635V65.525l.969-.876v-.81h-.627l-.467-.812v-1.375l.467-.438v-.808h-.59v-1.719l.28-.254v-1.12l-.599-1.592-.715 1.529v1.125l.375.28v1.75h-1.215v-2.562h.436v-.656h-.907V55.69h.314v-.593s-.563-.187-1.155-.627c-.594-.436-.437-2.024-.437-2.024l.187-.254v-1.058h-.373s.029-.938-.188-1.78c-.218-.845-1.592-1.437-1.592-1.437v-.908l-.689-.28v-1.337s1.313-.816 1.405-1.687c.095-.876-1.343-1.812-1.891-2.626-.554-.811-.709-2.525-.709-2.525v-.374l.229-.25v-.795l-.436-.102-.086-.333s.417-.354.398-.685c-.023-.336-.521-.462-.521-.462v-1.954h1.125v-.562h-1.146v-1.103l-.271-.417-.269.417v1.103h-1.146v.562h1.127v1.954s-.504.126-.524.462c-.021.33.394.685.394.685l-.082.333-.435.102v.795l.226.25v.374s-.155 1.715-.705 2.525c-.551.813-1.988 1.75-1.896 2.626.095.87 1.406 1.687 1.406 1.687v1.337l-.685.28v.908s-1.374.592-1.592 1.437c-.219.842-.187 1.78-.187 1.78h-.378v1.058l.188.254s.157 1.589-.435 2.024c-.595.44-1.156.627-1.156.627v.593h.312v1.497h-.907v.656h.44v2.562h-1.22v-1.75l.375-.28V57.25l-.719-1.529-.589 1.592v1.12l.279.254v1.719h-.598v.808l.473.438v1.375l-.473.812h-.621v.81l.967.876v10.168l-2.84-4.338V69.96h-.312v-.81l-1.245-1.27v-1.603h-.648v1.579l-1.311 1.346v.652h-1.562v-3.493l.968-.876v-.812h-.621l-.473-.811v-1.374l.473-.436v-.815h-.596v-1.713l.278-.252V58.15l-.591-1.592-.715 1.528v1.123l.373.283v1.744h-1.221v-2.557h.44v-.656h-.907v-1.497h.312v-.596s-.562-.184-1.156-.624c-.594-.436-.436-2.027-.436-2.027l.191-.249v-1.064h-.377s.027-.935-.189-1.778c-.218-.842-1.592-1.435-1.592-1.435v-.904l-.686-.281v-1.346s1.312-.808 1.406-1.683c.092-.873-1.342-1.812-1.896-2.623-.552-.808-.712-2.53-.712-2.53v-.372l.231-.25v-.792l-.436-.104-.083-.33s.416-.354.393-.69c-.019-.33-.519-.453-.519-.453v-1.96h1.125v-.561h-1.146v-1.102l-.268-.417-.273.417v1.102h-1.146v.561h1.125v1.96s-.498.123-.521.453c-.018.336.398.69.398.69l-.086.33-.436.104v.792l.23.25v.372s-.158 1.723-.711 2.53c-.547.811-1.984 1.75-1.891 2.623.092.875 1.406 1.683 1.406 1.683v1.346l-.689.281v.904s-1.375.593-1.592 1.435c-.221.844-.184 1.778-.184 1.778h-.379v1.064l.188.249s.154 1.592-.436 2.027c-.594.44-1.156.624-1.156.624v.596h.314v1.497h-.908v.656h.436v2.557h-1.215v-1.744l.375-.283v-1.123l-.721-1.528-.592 1.592v1.122l.279.252v1.713h-.59v.815l.467.436v1.374l-.467.811h-.627v.812l.969.876v2.062l-2.316.002v-3.417h-.655V50.48h.534v-.621l.491-.208v-1.46h-1.272v-2.746h.287v-.663h.455v-.711h-.826c-.12-1.08-1.393-4.075-1.393-4.075v-3.832h-2.258c-1.764-3.204-5.182-5.234-5.182-5.234v-1.778l-.373-.408v-.966l-1.077-.685v-4.03l.495-.344.059-.716h.676v-.627l-2.027-1.027-1.108-1.921v-.419l-.803-.359v-.41l.417-.372.322-.515-.266-.689-.41-.344v-3.325l.195-.309h1.341v-.483h-1.366l-.17-.472V9.609l-.41-.373-.414.373v1.122l-.168.472h-1.369v.483h1.34l.197.309v3.325l-.412.344-.264.689.322.515.416.372v.409l-.797.359v.419l-1.109 1.921-2.032 1.027v.627h.677l.058.716.495.344v4.03l-1.077.685v.966l-.372.408v1.778s-3.415 2.03-5.183 5.234h-2.258v3.832s-1.27 2.995-1.394 4.075h-.822v.711h.453v.663h.286v2.746h-1.272v1.46l.49.208v.621h.533v14.528h-.653v3.476h-.448v.327h-3.354v-.409l.575-.574v-.936l-1.089-.908-.016-.435.467-.016v-.53h-.391v-1.141h-.706v1.17h-.559v.438l.559.079v.529l-1.279.971.031.839.722.624v.627l-2.626 5.888-.744-.939v-.425l-.362-.179v-3.469h-.28v2.066h-2.227v-1.265h-.178v1.265h-3.717v-1.867h-.221v1.945l-2.226.661v-1.544h-.22v2.989l-.273.241v.414l-3.098 4.886-.244-.443v-.542l-.157-.179v-1.849h-.204v.884h-1.584v-.7h-.356v.799h-1.249v-.92h-.209v2.099l-.132.128v.42l-2.444 6.162v.544h-.125v-.359h-1.388v.359h-.983v-.359h-1.382v.359h-.985v-.359h-1.383v.359h-.986v-.359h-1.383v.359h-.348v-.963h.498v-.716h-.417s-.366-1.814-1.083-2.468c-.721-.656-1.279-.968-1.279-.968l-.344-1.062v-.626l.296-.09v-.625l-.451-.624v-4.228h-.438v4.228l-.454.624v.627l.299.09v.626l-.346 1.062s-.562.312-1.277.968c-.721.653-1.086 2.468-1.086 2.468h-.414v.716h.498v.604h-.758v.359h-.98v-.359h-1.388v.359h-.985v-.359h-1.383v.359h-.506v-6.905h.201v-1.506l-.469-.42V74.07h.314v-6.667h-.178v2.612h-1.928l-.255-1.005h.552l-.336-.7v-.826h-.137v.826h-.297l-.747-2.653v-1.201h-.315l-1.51-5.117v-.304l-.32-.238v-.742h.594v-.199l-.53-.725v-.54h-.16v.338h-.37l-1.162-4.954v-.523l-.256-.422v-3.771l-.137-.239v-3.191l-.178-.319-.174.319v3.191l-.142.239v3.771l-.252.422v.523l-1.161 4.954h-.375v-.338h-.158v.54l-.529.725v.199h.588v.742l-.312.238v.304l-1.514 5.117h-.316v1.201l-.748 2.653h-.296v-.826h-.134v.826l-.336.7h.554l-.258 1.005h-1.927v-2.612h-.176v6.667h.312v3.309l-.472.42v.947h-9.848l-.212-.286v-1.013l-.216-.393V75.38l.063-.191v-.249l.152-.152v-.19l-.134-.189.078-.317-.062-.137.33-.901-.073-.252-.634.823-.147-.168-.153.168-.631-.823-.079.252.333.901-.061.137.077.317-.129.189v.19l.146.152v.249l.065.191v1.674l-.212.393v1.013l-.221.286h-10.7v-.969h.224l.383-.361v-.598l-.212-.325h-.761l-.344-.941V72.18l.115-.46v-.28h-.229v-.546l.132-.317v-1.146h-.362v.784h-.191l-.663-1.828v-1.762h-.191v1.762h-.648l-.895-3.149h.627l-.534-1.183v-.845h-.189v.845h-.265l-.663-2.575.327-.692v-.404h-.529V57.78h.529v-.391l-1.015-2.242v-1.672h-.183v1.593h-.916l-.761-3.473v-2.591l-.124-.196v-2.287l-.144-.12V43.77l-.118-.168-.112.168v2.63l-.145.12v2.287l-.128.196v2.591l-.756 3.473h-.915v-1.593h-.187v1.672l-1.015 2.242v.391h.53v2.604h-.53v.404l.331.692-.662 2.575H94.9v-.844h-.186v.845l-.538 1.183h.629l-.894 3.149h-.646v-1.762h-.191v1.762l-.666 1.828h-.194v-.784h-.359v1.146l.131.317v.546h-.228v.28l.112.46v3.372l-.343.941h-.757l-.209.325v.598l.38.361h.246v1.346l.149.323v5.656l-.283.202v.905h-.225v-.359h-1.385v.359h-.784v-.359h-1.388v.359h-.781v-.359h-1.382v.359h-.782v-.359h-1.387v.359h-.781v-.359h-1.385v.359h-.784v-.359h-1.383v.359h-.784v-.359h-1.385v.359h-.784v-.359h-1.382v.359h-.781v-.359h-1.387v.359h-.781v-.359h-1.383v.359h-.191v-.544l-2.449-6.162v-.42l-.129-.128v-2.099h-.209v.92h-1.246v-.799h-.362v.7h-1.587v-.884h-.196v1.849l-.165.179v.542l-.236.443-3.104-4.886v-.414l-.268-.241v-2.989h-.223v1.544l-2.228-.661v-1.945h-.223v1.867h-3.708v-1.265h-.181v1.265h-2.232v-2.066h-.277v3.469l-.359.179v.425l-4.933 6.242V67.894h.288v-1.516h-1.309l-1.775-1.439v-8.73l.86-.538v-.416h-.782l-1.701-1.857h-.394v-.747l-.288-.476v-2.176h-.467v2.176l-.239.476-.587-1.062v-8.913l.472-.218v-.643l1.021-.991v-.695l-.336-.257v-2.09l.097-.236v-.407l-.194-.183v-2.66h-.393v2.111s-.157-.458-.608-.811c-.451-.346-1.394-.312-1.394-.312v-.514l.276-.347v-.603h-1.021v-.644h-.432v-8.601l.148-.236V24l-.148-.142v-.325l.589-.241v-.327l.392-.129v-.37l-.824-.68v-2.732h-.391v2.111s-.1-.346-.568-1.229c-.471-.882-1.512-1.355-1.512-1.355v-.163l-.43-.312v-.736h.178v-.365s.918-.899 1.141-1.707c.224-.805-.458-1.594-1.045-2.145-.591-.549-.706-1.414-.706-1.414v-2.09s.606 0 .666-.876c.058-.884-.929-1.046-.929-1.046V5.256h2.014v-.291h-2.09V.464L32.773 0l-.233.464v4.501h-2.091v.291h2.012v2.471s-.988.162-.928 1.046c.058.876.668.876.668.876v2.09s-.12.865-.707 1.414c-.591.551-1.27 1.34-1.045 2.145.221.808 1.142 1.707 1.142 1.707v.365h.178v.736l-.433.312v.163s-1.038.474-1.51 1.355c-.47.884-.569 1.229-.569 1.229v-2.111h-.394v2.732l-.823.68v.37l.393.129v.327l.589.241v.325l-.145.142v.339l.145.236v8.601h-.431v.644h-1.022v.603l.277.347v.514s-.944-.034-1.39.312c-.456.353-.614.811-.614.811v-2.111h-.389v2.66l-.199.183v.407l.098.236v2.09l-.33.257v.695l1.018.991v.643l.475.218v8.913l-.588 1.062-.238-.476v-2.176h-.472v2.176l-.286.476v.747h-.394l-1.699 1.857h-.786v.416l.865.538v8.73l-1.775 1.439h-1.314v1.516h.289v21.355h-2.573v-1.382l-.241-.168v-1.884l.241-.44v-1.051l-.685-.829.171-.417v-1.393h-.304V79.97l.206-.315v-.456l-1.282-.708v-.207l.367-.157s.428-.674.417-1.025c-.016-.356-.892-.857-.892-.857V75.19l.218-.28v-.34l-.335-.54v-.825l.117-.163v-.231l-.162-.17v-1.088h.467v-.189h-.478v-1.018l-.132-.221-.125.221v1.018h-.478v.189h.467v1.088l-.163.17v.231l.115.163v.825l-.333.54v.339l.218.28v1.055s-.875.501-.892.857c-.013.352.418 1.025.418 1.025l.364.157v.207l-1.28.708v.456l.204.315v1.715h-.307v1.393l.171.417-.68.829v1.051l.242.44v1.884l-.242.168v1.382h-.815l-.475 3.026-.425.312H9.279s-.02.291 0 .587c.02.291-.404.643-.404.643v.86l.344.018v1.49l-.538.338-.053.37h-1.12s-.271.411-.296.731c-.022.314-.781.756-.781.756H4.157v.563H2.835l-1.759.538v.39h.194v1.443H.394v2.767l-.394.561v15.599h354.199v-16.716l-.498-.42z"/></svg>